<?xml version="1.0" encoding="UTF-8"?>
<svg xmlns="http://www.w3.org/2000/svg" xmlns:xlink="http://www.w3.org/1999/xlink" width="1753" height="1240" viewBox="0 0 1753 1240">
<defs>
<g>
<g id="glyph-0-0">
<path d="M 8.5625 0.125 C 8.351562 0.125 8.175781 0.0507812 8.03125 -0.09375 C 7.882812 -0.238281 7.8125 -0.414062 7.8125 -0.625 C 7.8125 -0.832031 7.882812 -1.015625 8.03125 -1.171875 C 8.175781 -1.328125 8.351562 -1.40625 8.5625 -1.40625 C 8.757812 -1.40625 8.929688 -1.328125 9.078125 -1.171875 C 9.234375 -1.015625 9.3125 -0.832031 9.3125 -0.625 C 9.3125 -0.414062 9.234375 -0.238281 9.078125 -0.09375 C 8.929688 0.0507812 8.757812 0.125 8.5625 0.125 Z M 5.125 0.125 C 4.914062 0.125 4.738281 0.0507812 4.59375 -0.09375 C 4.445312 -0.238281 4.375 -0.414062 4.375 -0.625 C 4.375 -0.832031 4.445312 -1.015625 4.59375 -1.171875 C 4.738281 -1.328125 4.914062 -1.40625 5.125 -1.40625 C 5.332031 -1.40625 5.507812 -1.328125 5.65625 -1.171875 C 5.800781 -1.015625 5.875 -0.832031 5.875 -0.625 C 5.875 -0.414062 5.800781 -0.238281 5.65625 -0.09375 C 5.507812 0.0507812 5.332031 0.125 5.125 0.125 Z M 1.703125 0.125 C 1.484375 0.125 1.300781 0.0507812 1.15625 -0.09375 C 1.019531 -0.238281 0.953125 -0.414062 0.953125 -0.625 C 0.953125 -0.832031 1.019531 -1.015625 1.15625 -1.171875 C 1.300781 -1.328125 1.484375 -1.40625 1.703125 -1.40625 C 1.898438 -1.40625 2.070312 -1.328125 2.21875 -1.171875 C 2.375 -1.015625 2.453125 -0.832031 2.453125 -0.625 C 2.453125 -0.414062 2.378906 -0.238281 2.234375 -0.09375 C 2.085938 0.0507812 1.910156 0.125 1.703125 0.125 Z M 1.703125 0.125 "/>
</g>
<g id="glyph-1-0">
<path d="M 5.140625 -0.078125 C 4.816406 0.0859375 4.335938 0.171875 3.703125 0.171875 C 2.179688 0.171875 1.421875 -0.617188 1.421875 -2.203125 L 1.421875 -5.40625 L 0.28125 -5.40625 L 0.28125 -7 L 1.421875 -7 L 1.421875 -8.515625 L 3.5625 -9.125 L 3.5625 -7 L 5.140625 -7 L 5.140625 -5.40625 L 3.5625 -5.40625 L 3.5625 -2.578125 C 3.5625 -1.847656 3.851562 -1.484375 4.4375 -1.484375 C 4.664062 -1.484375 4.898438 -1.550781 5.140625 -1.6875 Z M 5.140625 -0.078125 "/>
</g>
<g id="glyph-1-1">
<path d="M 7.203125 -2.890625 L 2.625 -2.890625 C 2.695312 -1.867188 3.335938 -1.359375 4.546875 -1.359375 C 5.316406 -1.359375 5.992188 -1.539062 6.578125 -1.90625 L 6.578125 -0.34375 C 5.929688 0 5.09375 0.171875 4.0625 0.171875 C 2.925781 0.171875 2.046875 -0.140625 1.421875 -0.765625 C 0.804688 -1.390625 0.5 -2.265625 0.5 -3.390625 C 0.5 -4.554688 0.832031 -5.476562 1.5 -6.15625 C 2.175781 -6.832031 3.007812 -7.171875 4 -7.171875 C 5.019531 -7.171875 5.804688 -6.867188 6.359375 -6.265625 C 6.921875 -5.660156 7.203125 -4.835938 7.203125 -3.796875 Z M 5.203125 -4.21875 C 5.203125 -5.21875 4.796875 -5.71875 3.984375 -5.71875 C 3.628906 -5.71875 3.328125 -5.570312 3.078125 -5.28125 C 2.828125 -5 2.675781 -4.644531 2.625 -4.21875 Z M 5.203125 -4.21875 "/>
</g>
<g id="glyph-1-2">
<path d="M 0.453125 -0.1875 L 0.453125 -1.9375 C 0.804688 -1.71875 1.160156 -1.554688 1.515625 -1.453125 C 1.867188 -1.347656 2.203125 -1.296875 2.515625 -1.296875 C 2.898438 -1.296875 3.203125 -1.347656 3.421875 -1.453125 C 3.640625 -1.554688 3.75 -1.71875 3.75 -1.9375 C 3.75 -2.070312 3.695312 -2.179688 3.59375 -2.265625 C 3.5 -2.359375 3.375 -2.441406 3.21875 -2.515625 C 3.0625 -2.585938 2.890625 -2.648438 2.703125 -2.703125 C 2.515625 -2.753906 2.332031 -2.816406 2.15625 -2.890625 C 1.882812 -2.992188 1.640625 -3.101562 1.421875 -3.21875 C 1.210938 -3.34375 1.035156 -3.484375 0.890625 -3.640625 C 0.742188 -3.804688 0.632812 -3.992188 0.5625 -4.203125 C 0.488281 -4.410156 0.453125 -4.65625 0.453125 -4.9375 C 0.453125 -5.332031 0.535156 -5.671875 0.703125 -5.953125 C 0.878906 -6.234375 1.109375 -6.460938 1.390625 -6.640625 C 1.671875 -6.828125 1.992188 -6.960938 2.359375 -7.046875 C 2.734375 -7.128906 3.117188 -7.171875 3.515625 -7.171875 C 3.828125 -7.171875 4.140625 -7.144531 4.453125 -7.09375 C 4.773438 -7.050781 5.09375 -6.984375 5.40625 -6.890625 L 5.40625 -5.21875 C 5.125 -5.382812 4.828125 -5.503906 4.515625 -5.578125 C 4.203125 -5.660156 3.898438 -5.703125 3.609375 -5.703125 C 3.460938 -5.703125 3.328125 -5.6875 3.203125 -5.65625 C 3.078125 -5.632812 2.96875 -5.597656 2.875 -5.546875 C 2.78125 -5.503906 2.703125 -5.441406 2.640625 -5.359375 C 2.585938 -5.285156 2.5625 -5.203125 2.5625 -5.109375 C 2.5625 -4.984375 2.601562 -4.875 2.6875 -4.78125 C 2.769531 -4.695312 2.875 -4.617188 3 -4.546875 C 3.132812 -4.484375 3.28125 -4.425781 3.4375 -4.375 C 3.601562 -4.320312 3.769531 -4.269531 3.9375 -4.21875 C 4.21875 -4.113281 4.472656 -4 4.703125 -3.875 C 4.941406 -3.757812 5.144531 -3.625 5.3125 -3.46875 C 5.476562 -3.3125 5.601562 -3.125 5.6875 -2.90625 C 5.78125 -2.6875 5.828125 -2.429688 5.828125 -2.140625 C 5.828125 -1.722656 5.734375 -1.367188 5.546875 -1.078125 C 5.367188 -0.785156 5.128906 -0.546875 4.828125 -0.359375 C 4.535156 -0.171875 4.191406 -0.0351562 3.796875 0.046875 C 3.410156 0.128906 3.007812 0.171875 2.59375 0.171875 C 1.820312 0.171875 1.109375 0.0507812 0.453125 -0.1875 Z M 0.453125 -0.1875 "/>
</g>
<g id="glyph-1-3">
<path d="M 7.5625 0 L 5.40625 0 L 5.40625 -1.0625 L 5.375 -1.0625 C 4.84375 -0.238281 4.128906 0.171875 3.234375 0.171875 C 1.609375 0.171875 0.796875 -0.8125 0.796875 -2.78125 L 0.796875 -7 L 2.953125 -7 L 2.953125 -2.96875 C 2.953125 -1.976562 3.34375 -1.484375 4.125 -1.484375 C 4.507812 -1.484375 4.816406 -1.617188 5.046875 -1.890625 C 5.285156 -2.160156 5.40625 -2.53125 5.40625 -3 L 5.40625 -7 L 7.5625 -7 Z M 7.5625 0 "/>
</g>
<g id="glyph-1-4">
<path d="M 7.765625 0 L 5.59375 0 L 5.59375 -0.96875 L 5.578125 -0.96875 C 5.078125 -0.207031 4.351562 0.171875 3.40625 0.171875 C 2.53125 0.171875 1.828125 -0.132812 1.296875 -0.75 C 0.765625 -1.375 0.5 -2.238281 0.5 -3.34375 C 0.5 -4.5 0.789062 -5.425781 1.375 -6.125 C 1.957031 -6.820312 2.726562 -7.171875 3.6875 -7.171875 C 4.582031 -7.171875 5.210938 -6.847656 5.578125 -6.203125 L 5.59375 -6.203125 L 5.59375 -10.359375 L 7.765625 -10.359375 Z M 5.640625 -3.40625 L 5.640625 -3.9375 C 5.640625 -4.382812 5.503906 -4.757812 5.234375 -5.0625 C 4.972656 -5.363281 4.632812 -5.515625 4.21875 -5.515625 C 3.738281 -5.515625 3.363281 -5.328125 3.09375 -4.953125 C 2.820312 -4.578125 2.6875 -4.0625 2.6875 -3.40625 C 2.6875 -2.789062 2.816406 -2.316406 3.078125 -1.984375 C 3.335938 -1.648438 3.695312 -1.484375 4.15625 -1.484375 C 4.59375 -1.484375 4.945312 -1.65625 5.21875 -2 C 5.5 -2.351562 5.640625 -2.820312 5.640625 -3.40625 Z M 5.640625 -3.40625 "/>
</g>
<g id="glyph-1-5">
<path d="M 7.671875 0 L 5.515625 0 L 5.515625 -3.890625 C 5.515625 -4.972656 5.128906 -5.515625 4.359375 -5.515625 C 3.984375 -5.515625 3.671875 -5.367188 3.421875 -5.078125 C 3.179688 -4.796875 3.0625 -4.4375 3.0625 -4 L 3.0625 0 L 0.90625 0 L 0.90625 -7 L 3.0625 -7 L 3.0625 -5.890625 L 3.09375 -5.890625 C 3.613281 -6.742188 4.363281 -7.171875 5.34375 -7.171875 C 6.894531 -7.171875 7.671875 -6.207031 7.671875 -4.28125 Z M 7.671875 0 "/>
</g>
<g id="glyph-1-6">
<path d="M 3.09375 -0.8125 L 3.0625 -0.8125 L 3.0625 3.21875 L 0.90625 3.21875 L 0.90625 -7 L 3.0625 -7 L 3.0625 -5.953125 L 3.09375 -5.953125 C 3.625 -6.765625 4.375 -7.171875 5.34375 -7.171875 C 6.25 -7.171875 6.945312 -6.859375 7.4375 -6.234375 C 7.9375 -5.617188 8.1875 -4.773438 8.1875 -3.703125 C 8.1875 -2.535156 7.894531 -1.597656 7.3125 -0.890625 C 6.738281 -0.179688 5.976562 0.171875 5.03125 0.171875 C 4.1875 0.171875 3.539062 -0.15625 3.09375 -0.8125 Z M 3.03125 -3.6875 L 3.03125 -3.125 C 3.03125 -2.644531 3.15625 -2.25 3.40625 -1.9375 C 3.664062 -1.632812 4.003906 -1.484375 4.421875 -1.484375 C 4.910156 -1.484375 5.289062 -1.671875 5.5625 -2.046875 C 5.832031 -2.429688 5.96875 -2.972656 5.96875 -3.671875 C 5.96875 -4.898438 5.492188 -5.515625 4.546875 -5.515625 C 4.097656 -5.515625 3.734375 -5.347656 3.453125 -5.015625 C 3.171875 -4.679688 3.03125 -4.238281 3.03125 -3.6875 Z M 3.03125 -3.6875 "/>
</g>
<g id="glyph-1-7">
<path d="M 6.734375 0 L 4.6875 0 L 4.6875 -1 L 4.65625 -1 C 4.1875 -0.21875 3.492188 0.171875 2.578125 0.171875 C 1.898438 0.171875 1.363281 -0.0195312 0.96875 -0.40625 C 0.582031 -0.789062 0.390625 -1.304688 0.390625 -1.953125 C 0.390625 -3.304688 1.191406 -4.085938 2.796875 -4.296875 L 4.703125 -4.546875 C 4.703125 -5.316406 4.285156 -5.703125 3.453125 -5.703125 C 2.617188 -5.703125 1.828125 -5.453125 1.078125 -4.953125 L 1.078125 -6.578125 C 1.378906 -6.734375 1.789062 -6.867188 2.3125 -6.984375 C 2.832031 -7.109375 3.304688 -7.171875 3.734375 -7.171875 C 5.734375 -7.171875 6.734375 -6.175781 6.734375 -4.1875 Z M 4.703125 -2.84375 L 4.703125 -3.3125 L 3.4375 -3.15625 C 2.726562 -3.0625 2.375 -2.742188 2.375 -2.203125 C 2.375 -1.953125 2.457031 -1.75 2.625 -1.59375 C 2.800781 -1.4375 3.035156 -1.359375 3.328125 -1.359375 C 3.734375 -1.359375 4.0625 -1.5 4.3125 -1.78125 C 4.570312 -2.0625 4.703125 -2.414062 4.703125 -2.84375 Z M 4.703125 -2.84375 "/>
</g>
<g id="glyph-1-8">
<path d="M 5.46875 -5.046875 C 5.21875 -5.191406 4.914062 -5.265625 4.5625 -5.265625 C 4.09375 -5.265625 3.722656 -5.09375 3.453125 -4.75 C 3.191406 -4.40625 3.0625 -3.9375 3.0625 -3.34375 L 3.0625 0 L 0.90625 0 L 0.90625 -7 L 3.0625 -7 L 3.0625 -5.703125 L 3.09375 -5.703125 C 3.4375 -6.648438 4.050781 -7.125 4.9375 -7.125 C 5.164062 -7.125 5.34375 -7.097656 5.46875 -7.046875 Z M 5.46875 -5.046875 "/>
</g>
<g id="glyph-2-0">
<path d="M 6.09375 2.765625 L 5.140625 2.765625 L 5.140625 -1.03125 L 5.109375 -1.03125 C 4.691406 -0.25 4.007812 0.140625 3.0625 0.140625 C 2.300781 0.140625 1.691406 -0.125 1.234375 -0.65625 C 0.785156 -1.195312 0.5625 -1.929688 0.5625 -2.859375 C 0.5625 -3.859375 0.8125 -4.65625 1.3125 -5.25 C 1.8125 -5.84375 2.484375 -6.140625 3.328125 -6.140625 C 4.148438 -6.140625 4.742188 -5.816406 5.109375 -5.171875 L 5.140625 -5.171875 L 5.140625 -6 L 6.09375 -6 Z M 5.140625 -2.703125 L 5.140625 -3.578125 C 5.140625 -4.066406 4.976562 -4.476562 4.65625 -4.8125 C 4.332031 -5.15625 3.921875 -5.328125 3.421875 -5.328125 C 2.847656 -5.328125 2.390625 -5.113281 2.046875 -4.6875 C 1.710938 -4.257812 1.546875 -3.660156 1.546875 -2.890625 C 1.546875 -2.191406 1.707031 -1.644531 2.03125 -1.25 C 2.351562 -0.863281 2.769531 -0.671875 3.28125 -0.671875 C 3.84375 -0.671875 4.289062 -0.863281 4.625 -1.25 C 4.96875 -1.632812 5.140625 -2.117188 5.140625 -2.703125 Z M 5.140625 -2.703125 "/>
</g>
<g id="glyph-2-1">
<path d="M 5.828125 0 L 4.859375 0 L 4.859375 -0.953125 L 4.84375 -0.953125 C 4.445312 -0.222656 3.828125 0.140625 2.984375 0.140625 C 1.554688 0.140625 0.84375 -0.710938 0.84375 -2.421875 L 0.84375 -6 L 1.796875 -6 L 1.796875 -2.5625 C 1.796875 -1.300781 2.28125 -0.671875 3.25 -0.671875 C 3.71875 -0.671875 4.101562 -0.84375 4.40625 -1.1875 C 4.707031 -1.53125 4.859375 -1.984375 4.859375 -2.546875 L 4.859375 -6 L 5.828125 -6 Z M 5.828125 0 "/>
</g>
<g id="glyph-2-2">
<path d="M 5.796875 -2.765625 L 1.5625 -2.765625 C 1.570312 -2.097656 1.75 -1.582031 2.09375 -1.21875 C 2.4375 -0.851562 2.910156 -0.671875 3.515625 -0.671875 C 4.191406 -0.671875 4.8125 -0.894531 5.375 -1.34375 L 5.375 -0.4375 C 4.851562 -0.0507812 4.15625 0.140625 3.28125 0.140625 C 2.4375 0.140625 1.769531 -0.128906 1.28125 -0.671875 C 0.800781 -1.222656 0.5625 -1.992188 0.5625 -2.984375 C 0.5625 -3.910156 0.828125 -4.664062 1.359375 -5.25 C 1.890625 -5.84375 2.546875 -6.140625 3.328125 -6.140625 C 4.109375 -6.140625 4.710938 -5.882812 5.140625 -5.375 C 5.578125 -4.875 5.796875 -4.171875 5.796875 -3.265625 Z M 4.8125 -3.578125 C 4.8125 -4.128906 4.675781 -4.554688 4.40625 -4.859375 C 4.144531 -5.171875 3.78125 -5.328125 3.3125 -5.328125 C 2.851562 -5.328125 2.46875 -5.164062 2.15625 -4.84375 C 1.84375 -4.519531 1.648438 -4.097656 1.578125 -3.578125 Z M 4.8125 -3.578125 "/>
</g>
<g id="glyph-2-3">
<path d="M 0.609375 -0.21875 L 0.609375 -1.25 C 1.128906 -0.863281 1.707031 -0.671875 2.34375 -0.671875 C 3.1875 -0.671875 3.609375 -0.953125 3.609375 -1.515625 C 3.609375 -1.671875 3.570312 -1.804688 3.5 -1.921875 C 3.425781 -2.035156 3.328125 -2.132812 3.203125 -2.21875 C 3.078125 -2.300781 2.929688 -2.375 2.765625 -2.4375 C 2.597656 -2.507812 2.421875 -2.582031 2.234375 -2.65625 C 1.960938 -2.757812 1.726562 -2.863281 1.53125 -2.96875 C 1.332031 -3.082031 1.164062 -3.207031 1.03125 -3.34375 C 0.894531 -3.476562 0.789062 -3.628906 0.71875 -3.796875 C 0.65625 -3.972656 0.625 -4.175781 0.625 -4.40625 C 0.625 -4.6875 0.6875 -4.9375 0.8125 -5.15625 C 0.945312 -5.375 1.117188 -5.554688 1.328125 -5.703125 C 1.546875 -5.847656 1.789062 -5.957031 2.0625 -6.03125 C 2.34375 -6.101562 2.628906 -6.140625 2.921875 -6.140625 C 3.441406 -6.140625 3.90625 -6.050781 4.3125 -5.875 L 4.3125 -4.90625 C 3.875 -5.1875 3.367188 -5.328125 2.796875 -5.328125 C 2.609375 -5.328125 2.441406 -5.304688 2.296875 -5.265625 C 2.160156 -5.222656 2.039062 -5.164062 1.9375 -5.09375 C 1.832031 -5.019531 1.75 -4.929688 1.6875 -4.828125 C 1.632812 -4.722656 1.609375 -4.609375 1.609375 -4.484375 C 1.609375 -4.328125 1.632812 -4.195312 1.6875 -4.09375 C 1.75 -3.988281 1.832031 -3.894531 1.9375 -3.8125 C 2.050781 -3.726562 2.1875 -3.65625 2.34375 -3.59375 C 2.5 -3.53125 2.675781 -3.457031 2.875 -3.375 C 3.132812 -3.269531 3.367188 -3.164062 3.578125 -3.0625 C 3.796875 -2.957031 3.976562 -2.835938 4.125 -2.703125 C 4.269531 -2.566406 4.382812 -2.410156 4.46875 -2.234375 C 4.550781 -2.054688 4.59375 -1.847656 4.59375 -1.609375 C 4.59375 -1.304688 4.523438 -1.046875 4.390625 -0.828125 C 4.265625 -0.609375 4.09375 -0.425781 3.875 -0.28125 C 3.65625 -0.144531 3.398438 -0.0390625 3.109375 0.03125 C 2.828125 0.101562 2.53125 0.140625 2.21875 0.140625 C 1.601562 0.140625 1.066406 0.0195312 0.609375 -0.21875 Z M 0.609375 -0.21875 "/>
</g>
<g id="glyph-2-4">
<path d="M 3.75 -0.0625 C 3.53125 0.0625 3.234375 0.125 2.859375 0.125 C 1.804688 0.125 1.28125 -0.457031 1.28125 -1.625 L 1.28125 -5.1875 L 0.25 -5.1875 L 0.25 -6 L 1.28125 -6 L 1.28125 -7.46875 L 2.25 -7.78125 L 2.25 -6 L 3.75 -6 L 3.75 -5.1875 L 2.25 -5.1875 L 2.25 -1.796875 C 2.25 -1.398438 2.316406 -1.113281 2.453125 -0.9375 C 2.585938 -0.769531 2.8125 -0.6875 3.125 -0.6875 C 3.375 -0.6875 3.582031 -0.75 3.75 -0.875 Z M 3.75 -0.0625 "/>
</g>
<g id="glyph-2-5">
<path d="M 1.46875 -7.53125 C 1.289062 -7.53125 1.140625 -7.585938 1.015625 -7.703125 C 0.898438 -7.816406 0.84375 -7.960938 0.84375 -8.140625 C 0.84375 -8.328125 0.898438 -8.476562 1.015625 -8.59375 C 1.140625 -8.707031 1.289062 -8.765625 1.46875 -8.765625 C 1.644531 -8.765625 1.789062 -8.707031 1.90625 -8.59375 C 2.03125 -8.476562 2.09375 -8.328125 2.09375 -8.140625 C 2.09375 -7.972656 2.03125 -7.828125 1.90625 -7.703125 C 1.789062 -7.585938 1.644531 -7.53125 1.46875 -7.53125 Z M 1.9375 0 L 0.96875 0 L 0.96875 -6 L 1.9375 -6 Z M 1.9375 0 "/>
</g>
<g id="glyph-2-6">
<path d="M 3.484375 0.140625 C 2.597656 0.140625 1.890625 -0.140625 1.359375 -0.703125 C 0.828125 -1.265625 0.5625 -2.007812 0.5625 -2.9375 C 0.5625 -3.9375 0.835938 -4.71875 1.390625 -5.28125 C 1.941406 -5.851562 2.6875 -6.140625 3.625 -6.140625 C 4.519531 -6.140625 5.21875 -5.863281 5.71875 -5.3125 C 6.21875 -4.757812 6.46875 -4 6.46875 -3.03125 C 6.46875 -2.070312 6.195312 -1.300781 5.65625 -0.71875 C 5.113281 -0.144531 4.390625 0.140625 3.484375 0.140625 Z M 3.546875 -5.328125 C 2.929688 -5.328125 2.441406 -5.117188 2.078125 -4.703125 C 1.722656 -4.285156 1.546875 -3.707031 1.546875 -2.96875 C 1.546875 -2.257812 1.726562 -1.695312 2.09375 -1.28125 C 2.457031 -0.875 2.941406 -0.671875 3.546875 -0.671875 C 4.171875 -0.671875 4.648438 -0.867188 4.984375 -1.265625 C 5.316406 -1.671875 5.484375 -2.242188 5.484375 -2.984375 C 5.484375 -3.734375 5.316406 -4.3125 4.984375 -4.71875 C 4.648438 -5.125 4.171875 -5.328125 3.546875 -5.328125 Z M 3.546875 -5.328125 "/>
</g>
<g id="glyph-2-7">
<path d="M 5.953125 0 L 5 0 L 5 -3.421875 C 5 -4.691406 4.53125 -5.328125 3.59375 -5.328125 C 3.113281 -5.328125 2.71875 -5.144531 2.40625 -4.78125 C 2.09375 -4.425781 1.9375 -3.972656 1.9375 -3.421875 L 1.9375 0 L 0.96875 0 L 0.96875 -6 L 1.9375 -6 L 1.9375 -5 L 1.953125 -5 C 2.410156 -5.757812 3.066406 -6.140625 3.921875 -6.140625 C 4.578125 -6.140625 5.078125 -5.925781 5.421875 -5.5 C 5.773438 -5.082031 5.953125 -4.472656 5.953125 -3.671875 Z M 5.953125 0 "/>
</g>
<g id="glyph-2-8">
<path d="M 4.984375 1.734375 L 0 1.734375 L 0 1.046875 L 4.984375 1.046875 Z M 4.984375 1.734375 "/>
</g>
<g id="glyph-2-9">
<path d="M 6.09375 0 L 5.140625 0 L 5.140625 -1.015625 L 5.109375 -1.015625 C 4.660156 -0.242188 3.972656 0.140625 3.046875 0.140625 C 2.296875 0.140625 1.691406 -0.125 1.234375 -0.65625 C 0.785156 -1.195312 0.5625 -1.929688 0.5625 -2.859375 C 0.5625 -3.847656 0.8125 -4.640625 1.3125 -5.234375 C 1.8125 -5.835938 2.476562 -6.140625 3.3125 -6.140625 C 4.132812 -6.140625 4.734375 -5.816406 5.109375 -5.171875 L 5.140625 -5.171875 L 5.140625 -8.890625 L 6.09375 -8.890625 Z M 5.140625 -2.71875 L 5.140625 -3.59375 C 5.140625 -4.082031 4.976562 -4.492188 4.65625 -4.828125 C 4.332031 -5.160156 3.925781 -5.328125 3.4375 -5.328125 C 2.851562 -5.328125 2.390625 -5.113281 2.046875 -4.6875 C 1.710938 -4.257812 1.546875 -3.664062 1.546875 -2.90625 C 1.546875 -2.21875 1.707031 -1.671875 2.03125 -1.265625 C 2.351562 -0.867188 2.785156 -0.671875 3.328125 -0.671875 C 3.859375 -0.671875 4.289062 -0.863281 4.625 -1.25 C 4.96875 -1.632812 5.140625 -2.125 5.140625 -2.71875 Z M 5.140625 -2.71875 "/>
</g>
<g id="glyph-2-10">
<path d="M 1.3125 -4.828125 C 1.125 -4.828125 0.96875 -4.890625 0.84375 -5.015625 C 0.71875 -5.148438 0.65625 -5.304688 0.65625 -5.484375 C 0.65625 -5.660156 0.71875 -5.8125 0.84375 -5.9375 C 0.96875 -6.0625 1.125 -6.125 1.3125 -6.125 C 1.488281 -6.125 1.640625 -6.0625 1.765625 -5.9375 C 1.898438 -5.8125 1.96875 -5.660156 1.96875 -5.484375 C 1.96875 -5.304688 1.898438 -5.148438 1.765625 -5.015625 C 1.640625 -4.890625 1.488281 -4.828125 1.3125 -4.828125 Z M 1.3125 0.125 C 1.125 0.125 0.96875 0.0625 0.84375 -0.0625 C 0.71875 -0.195312 0.65625 -0.351562 0.65625 -0.53125 C 0.65625 -0.707031 0.71875 -0.859375 0.84375 -0.984375 C 0.96875 -1.117188 1.125 -1.1875 1.3125 -1.1875 C 1.488281 -1.1875 1.640625 -1.117188 1.765625 -0.984375 C 1.898438 -0.859375 1.96875 -0.707031 1.96875 -0.53125 C 1.96875 -0.351562 1.898438 -0.195312 1.765625 -0.0625 C 1.640625 0.0625 1.488281 0.125 1.3125 0.125 Z M 1.3125 0.125 "/>
</g>
<g id="glyph-2-11">
</g>
<g id="glyph-2-12">
<path d="M 1.953125 -0.875 L 1.9375 -0.875 L 1.9375 2.765625 L 0.96875 2.765625 L 0.96875 -6 L 1.9375 -6 L 1.9375 -4.953125 L 1.953125 -4.953125 C 2.429688 -5.742188 3.125 -6.140625 4.03125 -6.140625 C 4.800781 -6.140625 5.40625 -5.867188 5.84375 -5.328125 C 6.28125 -4.796875 6.5 -4.078125 6.5 -3.171875 C 6.5 -2.171875 6.253906 -1.367188 5.765625 -0.765625 C 5.273438 -0.160156 4.601562 0.140625 3.75 0.140625 C 2.976562 0.140625 2.378906 -0.195312 1.953125 -0.875 Z M 1.9375 -3.28125 L 1.9375 -2.453125 C 1.9375 -1.953125 2.097656 -1.53125 2.421875 -1.1875 C 2.742188 -0.84375 3.148438 -0.671875 3.640625 -0.671875 C 4.222656 -0.671875 4.679688 -0.890625 5.015625 -1.328125 C 5.347656 -1.773438 5.515625 -2.394531 5.515625 -3.1875 C 5.515625 -3.863281 5.359375 -4.390625 5.046875 -4.765625 C 4.734375 -5.140625 4.316406 -5.328125 3.796875 -5.328125 C 3.234375 -5.328125 2.78125 -5.132812 2.4375 -4.75 C 2.101562 -4.363281 1.9375 -3.875 1.9375 -3.28125 Z M 1.9375 -3.28125 "/>
</g>
<g id="glyph-2-13">
<path d="M 5.265625 0 L 4.3125 0 L 4.3125 -0.9375 L 4.28125 -0.9375 C 3.863281 -0.21875 3.25 0.140625 2.4375 0.140625 C 1.84375 0.140625 1.375 -0.015625 1.03125 -0.328125 C 0.695312 -0.648438 0.53125 -1.070312 0.53125 -1.59375 C 0.53125 -2.71875 1.191406 -3.367188 2.515625 -3.546875 L 4.3125 -3.796875 C 4.3125 -4.816406 3.898438 -5.328125 3.078125 -5.328125 C 2.347656 -5.328125 1.691406 -5.082031 1.109375 -4.59375 L 1.109375 -5.578125 C 1.703125 -5.953125 2.382812 -6.140625 3.15625 -6.140625 C 4.5625 -6.140625 5.265625 -5.394531 5.265625 -3.90625 Z M 4.3125 -3.03125 L 2.859375 -2.84375 C 2.410156 -2.78125 2.070312 -2.664062 1.84375 -2.5 C 1.625 -2.34375 1.515625 -2.066406 1.515625 -1.671875 C 1.515625 -1.367188 1.617188 -1.125 1.828125 -0.9375 C 2.035156 -0.757812 2.3125 -0.671875 2.65625 -0.671875 C 3.132812 -0.671875 3.53125 -0.835938 3.84375 -1.171875 C 4.15625 -1.503906 4.3125 -1.925781 4.3125 -2.4375 Z M 4.3125 -3.03125 "/>
</g>
<g id="glyph-2-14">
<path d="M 4.109375 -5.03125 C 3.929688 -5.15625 3.6875 -5.21875 3.375 -5.21875 C 2.96875 -5.21875 2.625 -5.023438 2.34375 -4.640625 C 2.070312 -4.253906 1.9375 -3.726562 1.9375 -3.0625 L 1.9375 0 L 0.96875 0 L 0.96875 -6 L 1.9375 -6 L 1.9375 -4.765625 L 1.953125 -4.765625 C 2.085938 -5.179688 2.296875 -5.507812 2.578125 -5.75 C 2.859375 -5.988281 3.175781 -6.109375 3.53125 -6.109375 C 3.78125 -6.109375 3.972656 -6.082031 4.109375 -6.03125 Z M 4.109375 -5.03125 "/>
</g>
<g id="glyph-2-15">
<path d="M 5.75 -6 L 2.984375 0.96875 C 2.492188 2.207031 1.804688 2.828125 0.921875 2.828125 C 0.671875 2.828125 0.457031 2.800781 0.28125 2.75 L 0.28125 1.890625 C 0.488281 1.960938 0.679688 2 0.859375 2 C 1.335938 2 1.703125 1.707031 1.953125 1.125 L 2.421875 -0.015625 L 0.078125 -6 L 1.15625 -6 L 2.765625 -1.390625 C 2.785156 -1.328125 2.828125 -1.171875 2.890625 -0.921875 L 2.9375 -0.921875 C 2.945312 -1.015625 2.984375 -1.164062 3.046875 -1.375 L 4.75 -6 Z M 5.75 -6 "/>
</g>
<g id="glyph-2-16">
<path d="M 5.6875 -6 L 3.296875 0 L 2.359375 0 L 0.078125 -6 L 1.140625 -6 L 2.65625 -1.640625 C 2.769531 -1.316406 2.84375 -1.035156 2.875 -0.796875 L 2.890625 -0.796875 C 2.929688 -1.097656 2.992188 -1.375 3.078125 -1.625 L 4.671875 -6 Z M 5.6875 -6 "/>
</g>
<g id="glyph-2-17">
<path d="M 5.0625 -0.28125 C 4.601562 0 4.054688 0.140625 3.421875 0.140625 C 2.566406 0.140625 1.875 -0.132812 1.34375 -0.6875 C 0.820312 -1.25 0.5625 -1.972656 0.5625 -2.859375 C 0.5625 -3.847656 0.84375 -4.640625 1.40625 -5.234375 C 1.976562 -5.835938 2.738281 -6.140625 3.6875 -6.140625 C 4.207031 -6.140625 4.671875 -6.039062 5.078125 -5.84375 L 5.078125 -4.859375 C 4.628906 -5.171875 4.148438 -5.328125 3.640625 -5.328125 C 3.023438 -5.328125 2.519531 -5.109375 2.125 -4.671875 C 1.738281 -4.234375 1.546875 -3.65625 1.546875 -2.9375 C 1.546875 -2.238281 1.726562 -1.6875 2.09375 -1.28125 C 2.46875 -0.875 2.96875 -0.671875 3.59375 -0.671875 C 4.113281 -0.671875 4.601562 -0.84375 5.0625 -1.1875 Z M 5.0625 -0.28125 "/>
</g>
<g id="glyph-2-18">
<path d="M 5.953125 0 L 5 0 L 5 -3.453125 C 5 -4.703125 4.53125 -5.328125 3.59375 -5.328125 C 3.125 -5.328125 2.726562 -5.144531 2.40625 -4.78125 C 2.09375 -4.425781 1.9375 -3.96875 1.9375 -3.40625 L 1.9375 0 L 0.96875 0 L 0.96875 -8.890625 L 1.9375 -8.890625 L 1.9375 -5 L 1.953125 -5 C 2.421875 -5.757812 3.078125 -6.140625 3.921875 -6.140625 C 5.273438 -6.140625 5.953125 -5.328125 5.953125 -3.703125 Z M 5.953125 0 "/>
</g>
<g id="glyph-2-19">
<path d="M 3.5 1.90625 L 2.640625 1.90625 C 1.429688 0.519531 0.828125 -1.179688 0.828125 -3.203125 C 0.828125 -5.242188 1.429688 -6.976562 2.640625 -8.40625 L 3.5 -8.40625 C 2.28125 -6.914062 1.671875 -5.1875 1.671875 -3.21875 C 1.671875 -1.257812 2.28125 0.445312 3.5 1.90625 Z M 3.5 1.90625 "/>
</g>
<g id="glyph-2-20">
<path d="M 5.671875 -2.5625 C 5.671875 -2.15625 5.597656 -1.785156 5.453125 -1.453125 C 5.316406 -1.117188 5.117188 -0.832031 4.859375 -0.59375 C 4.609375 -0.351562 4.296875 -0.171875 3.921875 -0.046875 C 3.554688 0.078125 3.148438 0.140625 2.703125 0.140625 C 1.921875 0.140625 1.34375 0.0234375 0.96875 -0.203125 L 0.96875 -1.21875 C 1.53125 -0.851562 2.113281 -0.671875 2.71875 -0.671875 C 3.019531 -0.671875 3.289062 -0.710938 3.53125 -0.796875 C 3.78125 -0.890625 3.988281 -1.015625 4.15625 -1.171875 C 4.332031 -1.335938 4.460938 -1.535156 4.546875 -1.765625 C 4.640625 -1.992188 4.6875 -2.242188 4.6875 -2.515625 C 4.6875 -3.054688 4.503906 -3.484375 4.140625 -3.796875 C 3.773438 -4.109375 3.242188 -4.265625 2.546875 -4.265625 C 2.429688 -4.265625 2.3125 -4.257812 2.1875 -4.25 C 2.0625 -4.25 1.9375 -4.242188 1.8125 -4.234375 C 1.6875 -4.234375 1.5625 -4.226562 1.4375 -4.21875 C 1.320312 -4.207031 1.21875 -4.195312 1.125 -4.1875 L 1.40625 -8.40625 L 5.296875 -8.40625 L 5.296875 -7.53125 L 2.234375 -7.53125 L 2.0625 -5.0625 C 2.1875 -5.070312 2.316406 -5.078125 2.453125 -5.078125 C 2.597656 -5.085938 2.726562 -5.09375 2.84375 -5.09375 C 3.289062 -5.09375 3.6875 -5.035156 4.03125 -4.921875 C 4.382812 -4.804688 4.679688 -4.640625 4.921875 -4.421875 C 5.171875 -4.203125 5.359375 -3.9375 5.484375 -3.625 C 5.609375 -3.3125 5.671875 -2.957031 5.671875 -2.5625 Z M 5.671875 -2.5625 "/>
</g>
<g id="glyph-2-21">
<path d="M 5.984375 -4.234375 C 5.984375 -3.535156 5.914062 -2.910156 5.78125 -2.359375 C 5.65625 -1.816406 5.472656 -1.359375 5.234375 -0.984375 C 4.992188 -0.617188 4.695312 -0.335938 4.34375 -0.140625 C 4 0.046875 3.601562 0.140625 3.15625 0.140625 C 2.738281 0.140625 2.363281 0.0507812 2.03125 -0.125 C 1.695312 -0.3125 1.414062 -0.582031 1.1875 -0.9375 C 0.96875 -1.300781 0.796875 -1.738281 0.671875 -2.25 C 0.554688 -2.769531 0.5 -3.363281 0.5 -4.03125 C 0.5 -4.769531 0.5625 -5.421875 0.6875 -5.984375 C 0.8125 -6.546875 0.992188 -7.015625 1.234375 -7.390625 C 1.472656 -7.773438 1.769531 -8.0625 2.125 -8.25 C 2.476562 -8.445312 2.878906 -8.546875 3.328125 -8.546875 C 5.097656 -8.546875 5.984375 -7.109375 5.984375 -4.234375 Z M 5 -4.140625 C 5 -6.535156 4.425781 -7.734375 3.28125 -7.734375 C 2.082031 -7.734375 1.484375 -6.515625 1.484375 -4.078125 C 1.484375 -1.804688 2.070312 -0.671875 3.25 -0.671875 C 4.414062 -0.671875 5 -1.828125 5 -4.140625 Z M 5 -4.140625 "/>
</g>
<g id="glyph-2-22">
<path d="M 1 1.90625 L 0.140625 1.90625 C 1.359375 0.445312 1.96875 -1.257812 1.96875 -3.21875 C 1.96875 -5.1875 1.351562 -6.914062 0.125 -8.40625 L 1 -8.40625 C 2.21875 -6.976562 2.828125 -5.242188 2.828125 -3.203125 C 2.828125 -1.179688 2.21875 0.519531 1 1.90625 Z M 1 1.90625 "/>
</g>
<g id="glyph-2-23">
<path d="M 1.953125 -0.875 L 1.9375 -0.875 L 1.9375 0 L 0.96875 0 L 0.96875 -8.890625 L 1.9375 -8.890625 L 1.9375 -4.953125 L 1.953125 -4.953125 C 2.429688 -5.742188 3.125 -6.140625 4.03125 -6.140625 C 4.800781 -6.140625 5.40625 -5.867188 5.84375 -5.328125 C 6.28125 -4.796875 6.5 -4.078125 6.5 -3.171875 C 6.5 -2.171875 6.253906 -1.367188 5.765625 -0.765625 C 5.273438 -0.160156 4.601562 0.140625 3.75 0.140625 C 2.957031 0.140625 2.359375 -0.195312 1.953125 -0.875 Z M 1.9375 -3.28125 L 1.9375 -2.453125 C 1.9375 -1.953125 2.097656 -1.53125 2.421875 -1.1875 C 2.742188 -0.84375 3.148438 -0.671875 3.640625 -0.671875 C 4.222656 -0.671875 4.679688 -0.890625 5.015625 -1.328125 C 5.347656 -1.773438 5.515625 -2.394531 5.515625 -3.1875 C 5.515625 -3.863281 5.359375 -4.390625 5.046875 -4.765625 C 4.734375 -5.140625 4.316406 -5.328125 3.796875 -5.328125 C 3.234375 -5.328125 2.78125 -5.132812 2.4375 -4.75 C 2.101562 -4.363281 1.9375 -3.875 1.9375 -3.28125 Z M 1.9375 -3.28125 "/>
</g>
<g id="glyph-2-24">
<path d="M 1.9375 0 L 0.96875 0 L 0.96875 -8.890625 L 1.9375 -8.890625 Z M 1.9375 0 "/>
</g>
<g id="glyph-2-25">
<path d="M 9.5 0 L 8.53125 0 L 8.53125 -3.453125 C 8.53125 -4.109375 8.425781 -4.582031 8.21875 -4.875 C 8.019531 -5.175781 7.675781 -5.328125 7.1875 -5.328125 C 6.78125 -5.328125 6.429688 -5.140625 6.140625 -4.765625 C 5.859375 -4.390625 5.71875 -3.941406 5.71875 -3.421875 L 5.71875 0 L 4.75 0 L 4.75 -3.5625 C 4.75 -4.738281 4.296875 -5.328125 3.390625 -5.328125 C 2.960938 -5.328125 2.613281 -5.148438 2.34375 -4.796875 C 2.070312 -4.441406 1.9375 -3.984375 1.9375 -3.421875 L 1.9375 0 L 0.96875 0 L 0.96875 -6 L 1.9375 -6 L 1.9375 -5.046875 L 1.953125 -5.046875 C 2.378906 -5.773438 3.003906 -6.140625 3.828125 -6.140625 C 4.234375 -6.140625 4.585938 -6.023438 4.890625 -5.796875 C 5.191406 -5.566406 5.398438 -5.269531 5.515625 -4.90625 C 5.960938 -5.726562 6.628906 -6.140625 7.515625 -6.140625 C 8.835938 -6.140625 9.5 -5.328125 9.5 -3.703125 Z M 9.5 0 "/>
</g>
<g id="glyph-2-26">
<path d="M 4.25 0 L 3.28125 0 L 3.28125 -7.265625 C 3.207031 -7.191406 3.097656 -7.101562 2.953125 -7 C 2.816406 -6.90625 2.65625 -6.8125 2.46875 -6.71875 C 2.289062 -6.625 2.101562 -6.535156 1.90625 -6.453125 C 1.71875 -6.367188 1.53125 -6.304688 1.34375 -6.265625 L 1.34375 -7.234375 C 1.550781 -7.296875 1.769531 -7.375 2 -7.46875 C 2.238281 -7.570312 2.472656 -7.6875 2.703125 -7.8125 C 2.929688 -7.9375 3.144531 -8.0625 3.34375 -8.1875 C 3.550781 -8.320312 3.726562 -8.457031 3.875 -8.59375 L 4.25 -8.59375 Z M 4.25 0 "/>
</g>
<g id="glyph-2-27">
<path d="M 4.53125 -6.203125 C 4.53125 -6.460938 4.488281 -6.6875 4.40625 -6.875 C 4.320312 -7.0625 4.210938 -7.21875 4.078125 -7.34375 C 3.941406 -7.476562 3.78125 -7.578125 3.59375 -7.640625 C 3.40625 -7.703125 3.203125 -7.734375 2.984375 -7.734375 C 2.796875 -7.734375 2.609375 -7.707031 2.421875 -7.65625 C 2.242188 -7.601562 2.066406 -7.53125 1.890625 -7.4375 C 1.722656 -7.351562 1.5625 -7.25 1.40625 -7.125 C 1.25 -7 1.101562 -6.859375 0.96875 -6.703125 L 0.96875 -7.734375 C 1.238281 -7.992188 1.539062 -8.191406 1.875 -8.328125 C 2.207031 -8.472656 2.613281 -8.546875 3.09375 -8.546875 C 3.4375 -8.546875 3.753906 -8.492188 4.046875 -8.390625 C 4.335938 -8.296875 4.59375 -8.148438 4.8125 -7.953125 C 5.03125 -7.765625 5.195312 -7.53125 5.3125 -7.25 C 5.4375 -6.96875 5.5 -6.644531 5.5 -6.28125 C 5.5 -5.945312 5.460938 -5.644531 5.390625 -5.375 C 5.316406 -5.101562 5.203125 -4.847656 5.046875 -4.609375 C 4.890625 -4.378906 4.691406 -4.15625 4.453125 -3.9375 C 4.222656 -3.71875 3.953125 -3.492188 3.640625 -3.265625 C 3.242188 -2.984375 2.914062 -2.742188 2.65625 -2.546875 C 2.40625 -2.347656 2.203125 -2.160156 2.046875 -1.984375 C 1.898438 -1.804688 1.796875 -1.628906 1.734375 -1.453125 C 1.671875 -1.285156 1.640625 -1.085938 1.640625 -0.859375 L 5.828125 -0.859375 L 5.828125 0 L 0.640625 0 L 0.640625 -0.421875 C 0.640625 -0.773438 0.675781 -1.085938 0.75 -1.359375 C 0.832031 -1.640625 0.960938 -1.898438 1.140625 -2.140625 C 1.316406 -2.390625 1.550781 -2.632812 1.84375 -2.875 C 2.132812 -3.125 2.492188 -3.40625 2.921875 -3.71875 C 3.222656 -3.9375 3.472656 -4.144531 3.671875 -4.34375 C 3.878906 -4.539062 4.046875 -4.738281 4.171875 -4.9375 C 4.296875 -5.132812 4.382812 -5.335938 4.4375 -5.546875 C 4.5 -5.753906 4.53125 -5.972656 4.53125 -6.203125 Z M 4.53125 -6.203125 "/>
</g>
<g id="glyph-2-28">
<path d="M 6.09375 -0.484375 C 6.09375 1.722656 5.039062 2.828125 2.9375 2.828125 C 2.1875 2.828125 1.535156 2.6875 0.984375 2.40625 L 0.984375 1.4375 C 1.660156 1.8125 2.304688 2 2.921875 2 C 4.398438 2 5.140625 1.210938 5.140625 -0.359375 L 5.140625 -1.015625 L 5.109375 -1.015625 C 4.648438 -0.242188 3.960938 0.140625 3.046875 0.140625 C 2.296875 0.140625 1.691406 -0.125 1.234375 -0.65625 C 0.785156 -1.1875 0.5625 -1.90625 0.5625 -2.8125 C 0.5625 -3.832031 0.804688 -4.640625 1.296875 -5.234375 C 1.785156 -5.835938 2.457031 -6.140625 3.3125 -6.140625 C 4.125 -6.140625 4.722656 -5.816406 5.109375 -5.171875 L 5.140625 -5.171875 L 5.140625 -6 L 6.09375 -6 Z M 5.140625 -2.71875 L 5.140625 -3.59375 C 5.140625 -4.070312 4.976562 -4.476562 4.65625 -4.8125 C 4.332031 -5.15625 3.929688 -5.328125 3.453125 -5.328125 C 2.859375 -5.328125 2.390625 -5.109375 2.046875 -4.671875 C 1.710938 -4.242188 1.546875 -3.644531 1.546875 -2.875 C 1.546875 -2.207031 1.707031 -1.671875 2.03125 -1.265625 C 2.351562 -0.867188 2.78125 -0.671875 3.3125 -0.671875 C 3.851562 -0.671875 4.289062 -0.859375 4.625 -1.234375 C 4.96875 -1.617188 5.140625 -2.113281 5.140625 -2.71875 Z M 5.140625 -2.71875 "/>
</g>
</g>
<clipPath id="clip-0">
<path clip-rule="nonzero" d="M 272 134 L 304 134 L 304 154 L 272 154 Z M 272 134 "/>
</clipPath>
<clipPath id="clip-1">
<path clip-rule="nonzero" d="M 272 134 L 305 134 L 305 154 L 272 154 Z M 272 134 "/>
</clipPath>
<clipPath id="clip-2">
<path clip-rule="nonzero" d="M 305 140 L 325 140 L 325 154 L 305 154 Z M 275 154 L 325 154 L 325 174 L 275 174 Z M 275 154 "/>
</clipPath>
<clipPath id="clip-3">
<path clip-rule="nonzero" d="M 515 134 L 547 134 L 547 154 L 515 154 Z M 515 134 "/>
</clipPath>
<clipPath id="clip-4">
<path clip-rule="nonzero" d="M 515 134 L 548 134 L 548 154 L 515 154 Z M 515 134 "/>
</clipPath>
<clipPath id="clip-5">
<path clip-rule="nonzero" d="M 503 140 L 515 140 L 515 154 L 503 154 Z M 503 154 L 545 154 L 545 174 L 503 174 Z M 503 154 "/>
</clipPath>
<clipPath id="clip-6">
<path clip-rule="nonzero" d="M 254 10 L 566 10 L 566 316 L 254 316 Z M 254 10 "/>
</clipPath>
<clipPath id="clip-7">
<path clip-rule="nonzero" d="M 311 61 L 509 61 L 509 93 L 311 93 Z M 311 61 "/>
</clipPath>
<clipPath id="clip-8">
<path clip-rule="nonzero" d="M 311 71 C 311 65.476562 315.476562 61 321 61 L 499 61 C 504.523438 61 509 65.476562 509 71 L 509 249 C 509 254.523438 504.523438 259 499 259 L 321 259 C 315.476562 259 311 254.523438 311 249 Z M 311 71 "/>
</clipPath>
<clipPath id="clip-9">
<path clip-rule="nonzero" d="M 398 71 L 423 71 L 423 82 L 398 82 Z M 398 71 "/>
</clipPath>
<clipPath id="clip-10">
<path clip-rule="nonzero" d="M 311 71 C 311 65.476562 315.476562 61 321 61 L 499 61 C 504.523438 61 509 65.476562 509 71 L 509 249 C 509 254.523438 504.523438 259 499 259 L 321 259 C 315.476562 259 311 254.523438 311 249 Z M 311 71 "/>
</clipPath>
<clipPath id="clip-11">
<path clip-rule="nonzero" d="M 311 93 L 509 93 L 509 259 L 311 259 Z M 311 93 "/>
</clipPath>
<clipPath id="clip-12">
<path clip-rule="nonzero" d="M 311 71 C 311 65.476562 315.476562 61 321 61 L 499 61 C 504.523438 61 509 65.476562 509 71 L 509 249 C 509 254.523438 504.523438 259 499 259 L 321 259 C 315.476562 259 311 254.523438 311 249 Z M 311 71 "/>
</clipPath>
<clipPath id="clip-13">
<path clip-rule="nonzero" d="M 311 93 L 509 93 L 509 114 L 311 114 Z M 311 93 "/>
</clipPath>
<clipPath id="clip-14">
<path clip-rule="nonzero" d="M 311 71 C 311 65.476562 315.476562 61 321 61 L 499 61 C 504.523438 61 509 65.476562 509 71 L 509 249 C 509 254.523438 504.523438 259 499 259 L 321 259 C 315.476562 259 311 254.523438 311 249 Z M 311 71 "/>
</clipPath>
<clipPath id="clip-15">
<path clip-rule="nonzero" d="M 325 96 L 336 96 L 336 107 L 325 107 Z M 325 96 "/>
</clipPath>
<clipPath id="clip-16">
<path clip-rule="nonzero" d="M 311 71 C 311 65.476562 315.476562 61 321 61 L 499 61 C 504.523438 61 509 65.476562 509 71 L 509 249 C 509 254.523438 504.523438 259 499 259 L 321 259 C 315.476562 259 311 254.523438 311 249 Z M 311 71 "/>
</clipPath>
<linearGradient id="linear-pattern-0" gradientUnits="userSpaceOnUse" x1="291" y1="73" x2="291" y2="94" gradientTransform="matrix(1, 0, 0, 1, 20, 20)">
<stop offset="0" stop-color="rgb(100%, 87.45098%, 60%)" stop-opacity="1"/>
<stop offset="1" stop-color="rgb(100%, 68.235294%, 0%)" stop-opacity="1"/>
</linearGradient>
<clipPath id="clip-17">
<path clip-rule="nonzero" d="M 320 99 L 331 99 L 331 111 L 320 111 Z M 320 99 "/>
</clipPath>
<clipPath id="clip-18">
<path clip-rule="nonzero" d="M 311 71 C 311 65.476562 315.476562 61 321 61 L 499 61 C 504.523438 61 509 65.476562 509 71 L 509 249 C 509 254.523438 504.523438 259 499 259 L 321 259 C 315.476562 259 311 254.523438 311 249 Z M 311 71 "/>
</clipPath>
<linearGradient id="linear-pattern-1" gradientUnits="userSpaceOnUse" x1="291" y1="73" x2="291" y2="94" gradientTransform="matrix(1, 0, 0, 1, 20, 20)">
<stop offset="0" stop-color="rgb(100%, 87.45098%, 60%)" stop-opacity="1"/>
<stop offset="1" stop-color="rgb(100%, 68.235294%, 0%)" stop-opacity="1"/>
</linearGradient>
<clipPath id="clip-19">
<path clip-rule="nonzero" d="M 338 98 L 399 98 L 399 110 L 338 110 Z M 338 98 "/>
</clipPath>
<clipPath id="clip-20">
<path clip-rule="nonzero" d="M 311 71 C 311 65.476562 315.476562 61 321 61 L 499 61 C 504.523438 61 509 65.476562 509 71 L 509 249 C 509 254.523438 504.523438 259 499 259 L 321 259 C 315.476562 259 311 254.523438 311 249 Z M 311 71 "/>
</clipPath>
<clipPath id="clip-21">
<path clip-rule="nonzero" d="M 401 98 L 421 98 L 421 108 L 401 108 Z M 401 98 "/>
</clipPath>
<clipPath id="clip-22">
<path clip-rule="nonzero" d="M 311 71 C 311 65.476562 315.476562 61 321 61 L 499 61 C 504.523438 61 509 65.476562 509 71 L 509 249 C 509 254.523438 504.523438 259 499 259 L 321 259 C 315.476562 259 311 254.523438 311 249 Z M 311 71 "/>
</clipPath>
<clipPath id="clip-23">
<path clip-rule="nonzero" d="M 311 114 L 509 114 L 509 135 L 311 135 Z M 311 114 "/>
</clipPath>
<clipPath id="clip-24">
<path clip-rule="nonzero" d="M 311 71 C 311 65.476562 315.476562 61 321 61 L 499 61 C 504.523438 61 509 65.476562 509 71 L 509 249 C 509 254.523438 504.523438 259 499 259 L 321 259 C 315.476562 259 311 254.523438 311 249 Z M 311 71 "/>
</clipPath>
<clipPath id="clip-25">
<path clip-rule="nonzero" d="M 325 117 L 336 117 L 336 128 L 325 128 Z M 325 117 "/>
</clipPath>
<clipPath id="clip-26">
<path clip-rule="nonzero" d="M 311 71 C 311 65.476562 315.476562 61 321 61 L 499 61 C 504.523438 61 509 65.476562 509 71 L 509 249 C 509 254.523438 504.523438 259 499 259 L 321 259 C 315.476562 259 311 254.523438 311 249 Z M 311 71 "/>
</clipPath>
<linearGradient id="linear-pattern-2" gradientUnits="userSpaceOnUse" x1="291" y1="94" x2="291" y2="115" gradientTransform="matrix(1, 0, 0, 1, 20, 20)">
<stop offset="0" stop-color="rgb(100%, 87.45098%, 60%)" stop-opacity="1"/>
<stop offset="1" stop-color="rgb(100%, 68.235294%, 0%)" stop-opacity="1"/>
</linearGradient>
<clipPath id="clip-27">
<path clip-rule="nonzero" d="M 320 120 L 331 120 L 331 132 L 320 132 Z M 320 120 "/>
</clipPath>
<clipPath id="clip-28">
<path clip-rule="nonzero" d="M 311 71 C 311 65.476562 315.476562 61 321 61 L 499 61 C 504.523438 61 509 65.476562 509 71 L 509 249 C 509 254.523438 504.523438 259 499 259 L 321 259 C 315.476562 259 311 254.523438 311 249 Z M 311 71 "/>
</clipPath>
<linearGradient id="linear-pattern-3" gradientUnits="userSpaceOnUse" x1="291" y1="94" x2="291" y2="115" gradientTransform="matrix(1, 0, 0, 1, 20, 20)">
<stop offset="0" stop-color="rgb(100%, 87.45098%, 60%)" stop-opacity="1"/>
<stop offset="1" stop-color="rgb(100%, 68.235294%, 0%)" stop-opacity="1"/>
</linearGradient>
<clipPath id="clip-29">
<path clip-rule="nonzero" d="M 338 119 L 378 119 L 378 131 L 338 131 Z M 338 119 "/>
</clipPath>
<clipPath id="clip-30">
<path clip-rule="nonzero" d="M 311 71 C 311 65.476562 315.476562 61 321 61 L 499 61 C 504.523438 61 509 65.476562 509 71 L 509 249 C 509 254.523438 504.523438 259 499 259 L 321 259 C 315.476562 259 311 254.523438 311 249 Z M 311 71 "/>
</clipPath>
<clipPath id="clip-31">
<path clip-rule="nonzero" d="M 380 119 L 400 119 L 400 129 L 380 129 Z M 380 119 "/>
</clipPath>
<clipPath id="clip-32">
<path clip-rule="nonzero" d="M 311 71 C 311 65.476562 315.476562 61 321 61 L 499 61 C 504.523438 61 509 65.476562 509 71 L 509 249 C 509 254.523438 504.523438 259 499 259 L 321 259 C 315.476562 259 311 254.523438 311 249 Z M 311 71 "/>
</clipPath>
<clipPath id="clip-33">
<path clip-rule="nonzero" d="M 311 135 L 509 135 L 509 156 L 311 156 Z M 311 135 "/>
</clipPath>
<clipPath id="clip-34">
<path clip-rule="nonzero" d="M 311 71 C 311 65.476562 315.476562 61 321 61 L 499 61 C 504.523438 61 509 65.476562 509 71 L 509 249 C 509 254.523438 504.523438 259 499 259 L 321 259 C 315.476562 259 311 254.523438 311 249 Z M 311 71 "/>
</clipPath>
<clipPath id="clip-35">
<path clip-rule="nonzero" d="M 325 138 L 336 138 L 336 149 L 325 149 Z M 325 138 "/>
</clipPath>
<clipPath id="clip-36">
<path clip-rule="nonzero" d="M 311 71 C 311 65.476562 315.476562 61 321 61 L 499 61 C 504.523438 61 509 65.476562 509 71 L 509 249 C 509 254.523438 504.523438 259 499 259 L 321 259 C 315.476562 259 311 254.523438 311 249 Z M 311 71 "/>
</clipPath>
<linearGradient id="linear-pattern-4" gradientUnits="userSpaceOnUse" x1="291" y1="115" x2="291" y2="136" gradientTransform="matrix(1, 0, 0, 1, 20, 20)">
<stop offset="0" stop-color="rgb(100%, 87.45098%, 60%)" stop-opacity="1"/>
<stop offset="1" stop-color="rgb(100%, 68.235294%, 0%)" stop-opacity="1"/>
</linearGradient>
<clipPath id="clip-37">
<path clip-rule="nonzero" d="M 320 141 L 331 141 L 331 153 L 320 153 Z M 320 141 "/>
</clipPath>
<clipPath id="clip-38">
<path clip-rule="nonzero" d="M 311 71 C 311 65.476562 315.476562 61 321 61 L 499 61 C 504.523438 61 509 65.476562 509 71 L 509 249 C 509 254.523438 504.523438 259 499 259 L 321 259 C 315.476562 259 311 254.523438 311 249 Z M 311 71 "/>
</clipPath>
<linearGradient id="linear-pattern-5" gradientUnits="userSpaceOnUse" x1="291" y1="115" x2="291" y2="136" gradientTransform="matrix(1, 0, 0, 1, 20, 20)">
<stop offset="0" stop-color="rgb(100%, 87.45098%, 60%)" stop-opacity="1"/>
<stop offset="1" stop-color="rgb(100%, 68.235294%, 0%)" stop-opacity="1"/>
</linearGradient>
<clipPath id="clip-39">
<path clip-rule="nonzero" d="M 338 140 L 393 140 L 393 151 L 338 151 Z M 338 140 "/>
</clipPath>
<clipPath id="clip-40">
<path clip-rule="nonzero" d="M 311 71 C 311 65.476562 315.476562 61 321 61 L 499 61 C 504.523438 61 509 65.476562 509 71 L 509 249 C 509 254.523438 504.523438 259 499 259 L 321 259 C 315.476562 259 311 254.523438 311 249 Z M 311 71 "/>
</clipPath>
<clipPath id="clip-41">
<path clip-rule="nonzero" d="M 395 140 L 415 140 L 415 150 L 395 150 Z M 395 140 "/>
</clipPath>
<clipPath id="clip-42">
<path clip-rule="nonzero" d="M 311 71 C 311 65.476562 315.476562 61 321 61 L 499 61 C 504.523438 61 509 65.476562 509 71 L 509 249 C 509 254.523438 504.523438 259 499 259 L 321 259 C 315.476562 259 311 254.523438 311 249 Z M 311 71 "/>
</clipPath>
<clipPath id="clip-43">
<path clip-rule="nonzero" d="M 311 156 L 509 156 L 509 177 L 311 177 Z M 311 156 "/>
</clipPath>
<clipPath id="clip-44">
<path clip-rule="nonzero" d="M 311 71 C 311 65.476562 315.476562 61 321 61 L 499 61 C 504.523438 61 509 65.476562 509 71 L 509 249 C 509 254.523438 504.523438 259 499 259 L 321 259 C 315.476562 259 311 254.523438 311 249 Z M 311 71 "/>
</clipPath>
<clipPath id="clip-45">
<path clip-rule="nonzero" d="M 338 162 L 361 162 L 361 173 L 338 173 Z M 338 162 "/>
</clipPath>
<clipPath id="clip-46">
<path clip-rule="nonzero" d="M 311 71 C 311 65.476562 315.476562 61 321 61 L 499 61 C 504.523438 61 509 65.476562 509 71 L 509 249 C 509 254.523438 504.523438 259 499 259 L 321 259 C 315.476562 259 311 254.523438 311 249 Z M 311 71 "/>
</clipPath>
<clipPath id="clip-47">
<path clip-rule="nonzero" d="M 363 161 L 427 161 L 427 172 L 363 172 Z M 363 161 "/>
</clipPath>
<clipPath id="clip-48">
<path clip-rule="nonzero" d="M 311 71 C 311 65.476562 315.476562 61 321 61 L 499 61 C 504.523438 61 509 65.476562 509 71 L 509 249 C 509 254.523438 504.523438 259 499 259 L 321 259 C 315.476562 259 311 254.523438 311 249 Z M 311 71 "/>
</clipPath>
<clipPath id="clip-49">
<path clip-rule="nonzero" d="M 311 177 L 509 177 L 509 198 L 311 198 Z M 311 177 "/>
</clipPath>
<clipPath id="clip-50">
<path clip-rule="nonzero" d="M 311 71 C 311 65.476562 315.476562 61 321 61 L 499 61 C 504.523438 61 509 65.476562 509 71 L 509 249 C 509 254.523438 504.523438 259 499 259 L 321 259 C 315.476562 259 311 254.523438 311 249 Z M 311 71 "/>
</clipPath>
<clipPath id="clip-51">
<path clip-rule="nonzero" d="M 338 182 L 417 182 L 417 194 L 338 194 Z M 338 182 "/>
</clipPath>
<clipPath id="clip-52">
<path clip-rule="nonzero" d="M 311 71 C 311 65.476562 315.476562 61 321 61 L 499 61 C 504.523438 61 509 65.476562 509 71 L 509 249 C 509 254.523438 504.523438 259 499 259 L 321 259 C 315.476562 259 311 254.523438 311 249 Z M 311 71 "/>
</clipPath>
<clipPath id="clip-53">
<path clip-rule="nonzero" d="M 419 182 L 462 182 L 462 192 L 419 192 Z M 419 182 "/>
</clipPath>
<clipPath id="clip-54">
<path clip-rule="nonzero" d="M 311 71 C 311 65.476562 315.476562 61 321 61 L 499 61 C 504.523438 61 509 65.476562 509 71 L 509 249 C 509 254.523438 504.523438 259 499 259 L 321 259 C 315.476562 259 311 254.523438 311 249 Z M 311 71 "/>
</clipPath>
<clipPath id="clip-55">
<path clip-rule="nonzero" d="M 494 10 L 816 10 L 816 316 L 494 316 Z M 494 10 "/>
</clipPath>
<clipPath id="clip-56">
<path clip-rule="nonzero" d="M 551 61 L 759 61 L 759 93 L 551 93 Z M 551 61 "/>
</clipPath>
<clipPath id="clip-57">
<path clip-rule="nonzero" d="M 551 71 C 551 65.476562 555.476562 61 561 61 L 749 61 C 754.523438 61 759 65.476562 759 71 L 759 249 C 759 254.523438 754.523438 259 749 259 L 561 259 C 555.476562 259 551 254.523438 551 249 Z M 551 71 "/>
</clipPath>
<clipPath id="clip-58">
<path clip-rule="nonzero" d="M 631 70 L 681 70 L 681 82 L 631 82 Z M 631 70 "/>
</clipPath>
<clipPath id="clip-59">
<path clip-rule="nonzero" d="M 551 71 C 551 65.476562 555.476562 61 561 61 L 749 61 C 754.523438 61 759 65.476562 759 71 L 759 249 C 759 254.523438 754.523438 259 749 259 L 561 259 C 555.476562 259 551 254.523438 551 249 Z M 551 71 "/>
</clipPath>
<clipPath id="clip-60">
<path clip-rule="nonzero" d="M 551 93 L 759 93 L 759 259 L 551 259 Z M 551 93 "/>
</clipPath>
<clipPath id="clip-61">
<path clip-rule="nonzero" d="M 551 71 C 551 65.476562 555.476562 61 561 61 L 749 61 C 754.523438 61 759 65.476562 759 71 L 759 249 C 759 254.523438 754.523438 259 749 259 L 561 259 C 555.476562 259 551 254.523438 551 249 Z M 551 71 "/>
</clipPath>
<clipPath id="clip-62">
<path clip-rule="nonzero" d="M 551 93 L 759 93 L 759 114 L 551 114 Z M 551 93 "/>
</clipPath>
<clipPath id="clip-63">
<path clip-rule="nonzero" d="M 551 71 C 551 65.476562 555.476562 61 561 61 L 749 61 C 754.523438 61 759 65.476562 759 71 L 759 249 C 759 254.523438 754.523438 259 749 259 L 561 259 C 555.476562 259 551 254.523438 551 249 Z M 551 71 "/>
</clipPath>
<clipPath id="clip-64">
<path clip-rule="nonzero" d="M 565 96 L 576 96 L 576 107 L 565 107 Z M 565 96 "/>
</clipPath>
<clipPath id="clip-65">
<path clip-rule="nonzero" d="M 551 71 C 551 65.476562 555.476562 61 561 61 L 749 61 C 754.523438 61 759 65.476562 759 71 L 759 249 C 759 254.523438 754.523438 259 749 259 L 561 259 C 555.476562 259 551 254.523438 551 249 Z M 551 71 "/>
</clipPath>
<linearGradient id="linear-pattern-6" gradientUnits="userSpaceOnUse" x1="531" y1="73" x2="531" y2="94" gradientTransform="matrix(1, 0, 0, 1, 20, 20)">
<stop offset="0" stop-color="rgb(100%, 87.45098%, 60%)" stop-opacity="1"/>
<stop offset="1" stop-color="rgb(100%, 68.235294%, 0%)" stop-opacity="1"/>
</linearGradient>
<clipPath id="clip-66">
<path clip-rule="nonzero" d="M 560 99 L 571 99 L 571 111 L 560 111 Z M 560 99 "/>
</clipPath>
<clipPath id="clip-67">
<path clip-rule="nonzero" d="M 551 71 C 551 65.476562 555.476562 61 561 61 L 749 61 C 754.523438 61 759 65.476562 759 71 L 759 249 C 759 254.523438 754.523438 259 749 259 L 561 259 C 555.476562 259 551 254.523438 551 249 Z M 551 71 "/>
</clipPath>
<linearGradient id="linear-pattern-7" gradientUnits="userSpaceOnUse" x1="531" y1="73" x2="531" y2="94" gradientTransform="matrix(1, 0, 0, 1, 20, 20)">
<stop offset="0" stop-color="rgb(100%, 87.45098%, 60%)" stop-opacity="1"/>
<stop offset="1" stop-color="rgb(100%, 68.235294%, 0%)" stop-opacity="1"/>
</linearGradient>
<clipPath id="clip-68">
<path clip-rule="nonzero" d="M 578 98 L 633 98 L 633 109 L 578 109 Z M 578 98 "/>
</clipPath>
<clipPath id="clip-69">
<path clip-rule="nonzero" d="M 551 71 C 551 65.476562 555.476562 61 561 61 L 749 61 C 754.523438 61 759 65.476562 759 71 L 759 249 C 759 254.523438 754.523438 259 749 259 L 561 259 C 555.476562 259 551 254.523438 551 249 Z M 551 71 "/>
</clipPath>
<clipPath id="clip-70">
<path clip-rule="nonzero" d="M 635 98 L 655 98 L 655 108 L 635 108 Z M 635 98 "/>
</clipPath>
<clipPath id="clip-71">
<path clip-rule="nonzero" d="M 551 71 C 551 65.476562 555.476562 61 561 61 L 749 61 C 754.523438 61 759 65.476562 759 71 L 759 249 C 759 254.523438 754.523438 259 749 259 L 561 259 C 555.476562 259 551 254.523438 551 249 Z M 551 71 "/>
</clipPath>
<clipPath id="clip-72">
<path clip-rule="nonzero" d="M 551 114 L 759 114 L 759 135 L 551 135 Z M 551 114 "/>
</clipPath>
<clipPath id="clip-73">
<path clip-rule="nonzero" d="M 551 71 C 551 65.476562 555.476562 61 561 61 L 749 61 C 754.523438 61 759 65.476562 759 71 L 759 249 C 759 254.523438 754.523438 259 749 259 L 561 259 C 555.476562 259 551 254.523438 551 249 Z M 551 71 "/>
</clipPath>
<clipPath id="clip-74">
<path clip-rule="nonzero" d="M 578 119 L 652 119 L 652 130 L 578 130 Z M 578 119 "/>
</clipPath>
<clipPath id="clip-75">
<path clip-rule="nonzero" d="M 551 71 C 551 65.476562 555.476562 61 561 61 L 749 61 C 754.523438 61 759 65.476562 759 71 L 759 249 C 759 254.523438 754.523438 259 749 259 L 561 259 C 555.476562 259 551 254.523438 551 249 Z M 551 71 "/>
</clipPath>
<clipPath id="clip-76">
<path clip-rule="nonzero" d="M 654 119 L 724 119 L 724 130 L 654 130 Z M 654 119 "/>
</clipPath>
<clipPath id="clip-77">
<path clip-rule="nonzero" d="M 551 71 C 551 65.476562 555.476562 61 561 61 L 749 61 C 754.523438 61 759 65.476562 759 71 L 759 249 C 759 254.523438 754.523438 259 749 259 L 561 259 C 555.476562 259 551 254.523438 551 249 Z M 551 71 "/>
</clipPath>
<clipPath id="clip-78">
<path clip-rule="nonzero" d="M 10 10 L 316 10 L 316 316 L 10 316 Z M 10 10 "/>
</clipPath>
<clipPath id="clip-79">
<path clip-rule="nonzero" d="M 61 61 L 259 61 L 259 93 L 61 93 Z M 61 61 "/>
</clipPath>
<clipPath id="clip-80">
<path clip-rule="nonzero" d="M 61 71 C 61 65.476562 65.476562 61 71 61 L 249 61 C 254.523438 61 259 65.476562 259 71 L 259 249 C 259 254.523438 254.523438 259 249 259 L 71 259 C 65.476562 259 61 254.523438 61 249 Z M 61 71 "/>
</clipPath>
<clipPath id="clip-81">
<path clip-rule="nonzero" d="M 140 73 L 180 73 L 180 85 L 140 85 Z M 140 73 "/>
</clipPath>
<clipPath id="clip-82">
<path clip-rule="nonzero" d="M 61 71 C 61 65.476562 65.476562 61 71 61 L 249 61 C 254.523438 61 259 65.476562 259 71 L 259 249 C 259 254.523438 254.523438 259 249 259 L 71 259 C 65.476562 259 61 254.523438 61 249 Z M 61 71 "/>
</clipPath>
<clipPath id="clip-83">
<path clip-rule="nonzero" d="M 61 93 L 259 93 L 259 259 L 61 259 Z M 61 93 "/>
</clipPath>
<clipPath id="clip-84">
<path clip-rule="nonzero" d="M 61 71 C 61 65.476562 65.476562 61 71 61 L 249 61 C 254.523438 61 259 65.476562 259 71 L 259 249 C 259 254.523438 254.523438 259 249 259 L 71 259 C 65.476562 259 61 254.523438 61 249 Z M 61 71 "/>
</clipPath>
<clipPath id="clip-85">
<path clip-rule="nonzero" d="M 61 93 L 259 93 L 259 114 L 61 114 Z M 61 93 "/>
</clipPath>
<clipPath id="clip-86">
<path clip-rule="nonzero" d="M 61 71 C 61 65.476562 65.476562 61 71 61 L 249 61 C 254.523438 61 259 65.476562 259 71 L 259 249 C 259 254.523438 254.523438 259 249 259 L 71 259 C 65.476562 259 61 254.523438 61 249 Z M 61 71 "/>
</clipPath>
<clipPath id="clip-87">
<path clip-rule="nonzero" d="M 75 96 L 86 96 L 86 107 L 75 107 Z M 75 96 "/>
</clipPath>
<clipPath id="clip-88">
<path clip-rule="nonzero" d="M 61 71 C 61 65.476562 65.476562 61 71 61 L 249 61 C 254.523438 61 259 65.476562 259 71 L 259 249 C 259 254.523438 254.523438 259 249 259 L 71 259 C 65.476562 259 61 254.523438 61 249 Z M 61 71 "/>
</clipPath>
<linearGradient id="linear-pattern-8" gradientUnits="userSpaceOnUse" x1="41" y1="73" x2="41" y2="94" gradientTransform="matrix(1, 0, 0, 1, 20, 20)">
<stop offset="0" stop-color="rgb(100%, 87.45098%, 60%)" stop-opacity="1"/>
<stop offset="1" stop-color="rgb(100%, 68.235294%, 0%)" stop-opacity="1"/>
</linearGradient>
<clipPath id="clip-89">
<path clip-rule="nonzero" d="M 70 99 L 81 99 L 81 111 L 70 111 Z M 70 99 "/>
</clipPath>
<clipPath id="clip-90">
<path clip-rule="nonzero" d="M 61 71 C 61 65.476562 65.476562 61 71 61 L 249 61 C 254.523438 61 259 65.476562 259 71 L 259 249 C 259 254.523438 254.523438 259 249 259 L 71 259 C 65.476562 259 61 254.523438 61 249 Z M 61 71 "/>
</clipPath>
<linearGradient id="linear-pattern-9" gradientUnits="userSpaceOnUse" x1="41" y1="73" x2="41" y2="94" gradientTransform="matrix(1, 0, 0, 1, 20, 20)">
<stop offset="0" stop-color="rgb(100%, 87.45098%, 60%)" stop-opacity="1"/>
<stop offset="1" stop-color="rgb(100%, 68.235294%, 0%)" stop-opacity="1"/>
</linearGradient>
<clipPath id="clip-91">
<path clip-rule="nonzero" d="M 88 98 L 128 98 L 128 110 L 88 110 Z M 88 98 "/>
</clipPath>
<clipPath id="clip-92">
<path clip-rule="nonzero" d="M 61 71 C 61 65.476562 65.476562 61 71 61 L 249 61 C 254.523438 61 259 65.476562 259 71 L 259 249 C 259 254.523438 254.523438 259 249 259 L 71 259 C 65.476562 259 61 254.523438 61 249 Z M 61 71 "/>
</clipPath>
<clipPath id="clip-93">
<path clip-rule="nonzero" d="M 130 98 L 150 98 L 150 108 L 130 108 Z M 130 98 "/>
</clipPath>
<clipPath id="clip-94">
<path clip-rule="nonzero" d="M 61 71 C 61 65.476562 65.476562 61 71 61 L 249 61 C 254.523438 61 259 65.476562 259 71 L 259 249 C 259 254.523438 254.523438 259 249 259 L 71 259 C 65.476562 259 61 254.523438 61 249 Z M 61 71 "/>
</clipPath>
<clipPath id="clip-95">
<path clip-rule="nonzero" d="M 61 114 L 259 114 L 259 135 L 61 135 Z M 61 114 "/>
</clipPath>
<clipPath id="clip-96">
<path clip-rule="nonzero" d="M 61 71 C 61 65.476562 65.476562 61 71 61 L 249 61 C 254.523438 61 259 65.476562 259 71 L 259 249 C 259 254.523438 254.523438 259 249 259 L 71 259 C 65.476562 259 61 254.523438 61 249 Z M 61 71 "/>
</clipPath>
<clipPath id="clip-97">
<path clip-rule="nonzero" d="M 88 119 L 138 119 L 138 131 L 88 131 Z M 88 119 "/>
</clipPath>
<clipPath id="clip-98">
<path clip-rule="nonzero" d="M 61 71 C 61 65.476562 65.476562 61 71 61 L 249 61 C 254.523438 61 259 65.476562 259 71 L 259 249 C 259 254.523438 254.523438 259 249 259 L 71 259 C 65.476562 259 61 254.523438 61 249 Z M 61 71 "/>
</clipPath>
<clipPath id="clip-99">
<path clip-rule="nonzero" d="M 140 119 L 210 119 L 210 130 L 140 130 Z M 140 119 "/>
</clipPath>
<clipPath id="clip-100">
<path clip-rule="nonzero" d="M 61 71 C 61 65.476562 65.476562 61 71 61 L 249 61 C 254.523438 61 259 65.476562 259 71 L 259 249 C 259 254.523438 254.523438 259 249 259 L 71 259 C 65.476562 259 61 254.523438 61 249 Z M 61 71 "/>
</clipPath>
<clipPath id="clip-101">
<path clip-rule="nonzero" d="M 61 135 L 259 135 L 259 156 L 61 156 Z M 61 135 "/>
</clipPath>
<clipPath id="clip-102">
<path clip-rule="nonzero" d="M 61 71 C 61 65.476562 65.476562 61 71 61 L 249 61 C 254.523438 61 259 65.476562 259 71 L 259 249 C 259 254.523438 254.523438 259 249 259 L 71 259 C 65.476562 259 61 254.523438 61 249 Z M 61 71 "/>
</clipPath>
<clipPath id="clip-103">
<path clip-rule="nonzero" d="M 88 140 L 141 140 L 141 152 L 88 152 Z M 88 140 "/>
</clipPath>
<clipPath id="clip-104">
<path clip-rule="nonzero" d="M 61 71 C 61 65.476562 65.476562 61 71 61 L 249 61 C 254.523438 61 259 65.476562 259 71 L 259 249 C 259 254.523438 254.523438 259 249 259 L 71 259 C 65.476562 259 61 254.523438 61 249 Z M 61 71 "/>
</clipPath>
<clipPath id="clip-105">
<path clip-rule="nonzero" d="M 143 140 L 172 140 L 172 150 L 143 150 Z M 143 140 "/>
</clipPath>
<clipPath id="clip-106">
<path clip-rule="nonzero" d="M 61 71 C 61 65.476562 65.476562 61 71 61 L 249 61 C 254.523438 61 259 65.476562 259 71 L 259 249 C 259 254.523438 254.523438 259 249 259 L 71 259 C 65.476562 259 61 254.523438 61 249 Z M 61 71 "/>
</clipPath>
<clipPath id="clip-107">
<path clip-rule="nonzero" d="M 61 156 L 259 156 L 259 177 L 61 177 Z M 61 156 "/>
</clipPath>
<clipPath id="clip-108">
<path clip-rule="nonzero" d="M 61 71 C 61 65.476562 65.476562 61 71 61 L 249 61 C 254.523438 61 259 65.476562 259 71 L 259 249 C 259 254.523438 254.523438 259 249 259 L 71 259 C 65.476562 259 61 254.523438 61 249 Z M 61 71 "/>
</clipPath>
<clipPath id="clip-109">
<path clip-rule="nonzero" d="M 88 163 L 123 163 L 123 173 L 88 173 Z M 88 163 "/>
</clipPath>
<clipPath id="clip-110">
<path clip-rule="nonzero" d="M 61 71 C 61 65.476562 65.476562 61 71 61 L 249 61 C 254.523438 61 259 65.476562 259 71 L 259 249 C 259 254.523438 254.523438 259 249 259 L 71 259 C 65.476562 259 61 254.523438 61 249 Z M 61 71 "/>
</clipPath>
<clipPath id="clip-111">
<path clip-rule="nonzero" d="M 126 161 L 146 161 L 146 171 L 126 171 Z M 126 161 "/>
</clipPath>
<clipPath id="clip-112">
<path clip-rule="nonzero" d="M 61 71 C 61 65.476562 65.476562 61 71 61 L 249 61 C 254.523438 61 259 65.476562 259 71 L 259 249 C 259 254.523438 254.523438 259 249 259 L 71 259 C 65.476562 259 61 254.523438 61 249 Z M 61 71 "/>
</clipPath>
<clipPath id="clip-113">
<path clip-rule="nonzero" d="M 61 177 L 259 177 L 259 198 L 61 198 Z M 61 177 "/>
</clipPath>
<clipPath id="clip-114">
<path clip-rule="nonzero" d="M 61 71 C 61 65.476562 65.476562 61 71 61 L 249 61 C 254.523438 61 259 65.476562 259 71 L 259 249 C 259 254.523438 254.523438 259 249 259 L 71 259 C 65.476562 259 61 254.523438 61 249 Z M 61 71 "/>
</clipPath>
<clipPath id="clip-115">
<path clip-rule="nonzero" d="M 88 184 L 107 184 L 107 194 L 88 194 Z M 88 184 "/>
</clipPath>
<clipPath id="clip-116">
<path clip-rule="nonzero" d="M 61 71 C 61 65.476562 65.476562 61 71 61 L 249 61 C 254.523438 61 259 65.476562 259 71 L 259 249 C 259 254.523438 254.523438 259 249 259 L 71 259 C 65.476562 259 61 254.523438 61 249 Z M 61 71 "/>
</clipPath>
<clipPath id="clip-117">
<path clip-rule="nonzero" d="M 109 182 L 152 182 L 152 192 L 109 192 Z M 109 182 "/>
</clipPath>
<clipPath id="clip-118">
<path clip-rule="nonzero" d="M 61 71 C 61 65.476562 65.476562 61 71 61 L 249 61 C 254.523438 61 259 65.476562 259 71 L 259 249 C 259 254.523438 254.523438 259 249 259 L 71 259 C 65.476562 259 61 254.523438 61 249 Z M 61 71 "/>
</clipPath>
<clipPath id="clip-119">
<path clip-rule="nonzero" d="M 61 198 L 259 198 L 259 219 L 61 219 Z M 61 198 "/>
</clipPath>
<clipPath id="clip-120">
<path clip-rule="nonzero" d="M 61 71 C 61 65.476562 65.476562 61 71 61 L 249 61 C 254.523438 61 259 65.476562 259 71 L 259 249 C 259 254.523438 254.523438 259 249 259 L 71 259 C 65.476562 259 61 254.523438 61 249 Z M 61 71 "/>
</clipPath>
<clipPath id="clip-121">
<path clip-rule="nonzero" d="M 88 203 L 111 203 L 111 213 L 88 213 Z M 88 203 "/>
</clipPath>
<clipPath id="clip-122">
<path clip-rule="nonzero" d="M 61 71 C 61 65.476562 65.476562 61 71 61 L 249 61 C 254.523438 61 259 65.476562 259 71 L 259 249 C 259 254.523438 254.523438 259 249 259 L 71 259 C 65.476562 259 61 254.523438 61 249 Z M 61 71 "/>
</clipPath>
<clipPath id="clip-123">
<path clip-rule="nonzero" d="M 114 203 L 157 203 L 157 213 L 114 213 Z M 114 203 "/>
</clipPath>
<clipPath id="clip-124">
<path clip-rule="nonzero" d="M 61 71 C 61 65.476562 65.476562 61 71 61 L 249 61 C 254.523438 61 259 65.476562 259 71 L 259 249 C 259 254.523438 254.523438 259 249 259 L 71 259 C 65.476562 259 61 254.523438 61 249 Z M 61 71 "/>
</clipPath>
</defs>
<rect x="-175.3" y="-124" width="2103.6" height="1488" fill="rgb(100%, 100%, 100%)" fill-opacity="1"/>
<path fill-rule="nonzero" fill="rgb(100%, 100%, 100%)" fill-opacity="1" d="M 20 20 L 1793 20 L 1793 1280 L 20 1280 Z M 20 20 "/>
<g fill="rgb(20%, 20%, 20%)" fill-opacity="1">
<use xlink:href="#glyph-0-0" x="294" y="148.375"/>
</g>
<g clip-path="url(#clip-0)">
<path fill="none" stroke-width="1" stroke-linecap="butt" stroke-linejoin="miter" stroke="rgb(45.882353%, 45.882353%, 45.882353%)" stroke-opacity="1" stroke-miterlimit="10" d="M 4.766183 11.766741 C 2.412109 14.124442 -1.124442 10.587891 1.233259 8.233817 M 2.481027 6.982422 C 4.838728 4.624721 8.375279 8.161272 6.017578 10.518973 M 1.251395 8.248326 L 2.749442 6.750279 M 4.751674 11.748605 L 6.249721 10.250558 M 10.518973 6.017578 C 8.161272 8.375279 4.624721 4.838728 6.982422 2.481027 M 8.233817 1.233259 C 10.587891 -1.124442 14.124442 2.412109 11.766741 4.766183 M 7.000558 2.499163 L 8.498605 1.001116 M 10.500837 5.999442 L 11.998884 4.501395 " transform="matrix(1.076923, 0, 0, 1.076923, 275, 136)"/>
</g>
<g clip-path="url(#clip-1)">
<path fill="none" stroke-width="1.5" stroke-linecap="round" stroke-linejoin="miter" stroke="rgb(14.117647%, 53.333333%, 96.862745%)" stroke-opacity="1" stroke-miterlimit="10" d="M 4.998326 8.001674 L 8.001674 4.998326 " transform="matrix(1.076923, 0, 0, 1.076923, 275, 136)"/>
</g>
<path fill="none" stroke-width="1" stroke-linecap="butt" stroke-linejoin="miter" stroke="rgb(0%, 0%, 0%)" stroke-opacity="1" stroke-miterlimit="10" d="M 290 140 L 240 140 " transform="matrix(1, 0, 0, 1, 20, 20)"/>
<g clip-path="url(#clip-2)">
<path fill="none" stroke-width="1" stroke-linecap="butt" stroke-linejoin="miter" stroke="rgb(0%, 0%, 0%)" stroke-opacity="1" stroke-miterlimit="10" d="M 290 135 L 278 140 M 278 140 L 290 145 M 278 140 C 278 145.332031 270 145.332031 270 140 C 270 134.667969 278 134.667969 278 140 " transform="matrix(1, 0, 0, 1, 20, 20)"/>
</g>
<path fill="none" stroke-width="1" stroke-linecap="butt" stroke-linejoin="miter" stroke="rgb(0%, 0%, 0%)" stroke-opacity="1" stroke-miterlimit="10" d="M 246 135 L 246 145 M 252 135 L 252 145 " transform="matrix(1, 0, 0, 1, 20, 20)"/>
<g fill="rgb(20%, 20%, 20%)" fill-opacity="1">
<use xlink:href="#glyph-0-0" x="537" y="148.375"/>
</g>
<g clip-path="url(#clip-3)">
<path fill="none" stroke-width="1" stroke-linecap="butt" stroke-linejoin="miter" stroke="rgb(45.882353%, 45.882353%, 45.882353%)" stroke-opacity="1" stroke-miterlimit="10" d="M 4.766183 11.766741 C 2.412109 14.124442 -1.124442 10.587891 1.233259 8.233817 M 2.481027 6.982422 C 4.838728 4.624721 8.375279 8.161272 6.017578 10.518973 M 1.251395 8.248326 L 2.749442 6.750279 M 4.751674 11.748605 L 6.249721 10.250558 M 10.518973 6.017578 C 8.161272 8.375279 4.624721 4.838728 6.982422 2.481027 M 8.233817 1.233259 C 10.587891 -1.124442 14.124442 2.412109 11.766741 4.766183 M 7.000558 2.499163 L 8.498605 1.001116 M 10.500837 5.999442 L 11.998884 4.501395 " transform="matrix(1.076923, 0, 0, 1.076923, 518, 136)"/>
</g>
<g clip-path="url(#clip-4)">
<path fill="none" stroke-width="1.5" stroke-linecap="round" stroke-linejoin="miter" stroke="rgb(14.117647%, 53.333333%, 96.862745%)" stroke-opacity="1" stroke-miterlimit="10" d="M 4.998326 8.001674 L 8.001674 4.998326 " transform="matrix(1.076923, 0, 0, 1.076923, 518, 136)"/>
</g>
<path fill="none" stroke-width="1" stroke-linecap="butt" stroke-linejoin="miter" stroke="rgb(0%, 0%, 0%)" stroke-opacity="1" stroke-miterlimit="10" d="M 490 140 L 530 140 " transform="matrix(1, 0, 0, 1, 20, 20)"/>
<g clip-path="url(#clip-5)">
<path fill="none" stroke-width="1" stroke-linecap="butt" stroke-linejoin="miter" stroke="rgb(0%, 0%, 0%)" stroke-opacity="1" stroke-miterlimit="10" d="M 490 135 L 502 140 M 502 140 L 490 145 M 510 140 C 510 145.332031 502 145.332031 502 140 C 502 134.667969 510 134.667969 510 140 " transform="matrix(1, 0, 0, 1, 20, 20)"/>
</g>
<path fill="none" stroke-width="1" stroke-linecap="butt" stroke-linejoin="miter" stroke="rgb(0%, 0%, 0%)" stroke-opacity="1" stroke-miterlimit="10" d="M 524 135 L 524 145 M 518 135 L 518 145 " transform="matrix(1, 0, 0, 1, 20, 20)"/>
<g clip-path="url(#clip-6)">
<path fill="none" stroke-width="4" stroke-linecap="butt" stroke-linejoin="miter" stroke="rgb(21.568627%, 51.372549%, 75.294118%)" stroke-opacity="1" stroke-miterlimit="10" d="M 291 51 C 291 45.476562 295.476562 41 301 41 L 479 41 C 484.523438 41 489 45.476562 489 51 L 489 229 C 489 234.523438 484.523438 239 479 239 L 301 239 C 295.476562 239 291 234.523438 291 229 Z M 291 51 " transform="matrix(1, 0, 0, 1, 20, 20)"/>
</g>
<g clip-path="url(#clip-7)">
<g clip-path="url(#clip-8)">
<path fill-rule="nonzero" fill="rgb(21.568627%, 51.372549%, 75.294118%)" fill-opacity="1" d="M 311 61 L 509 61 L 509 93 L 311 93 Z M 311 61 "/>
</g>
</g>
<g clip-path="url(#clip-9)">
<g clip-path="url(#clip-10)">
<g fill="rgb(100%, 100%, 100%)" fill-opacity="1">
<use xlink:href="#glyph-1-0" x="398" y="81.375"/>
<use xlink:href="#glyph-1-1" x="403" y="81.375"/>
<use xlink:href="#glyph-1-2" x="411" y="81.375"/>
<use xlink:href="#glyph-1-0" x="417" y="81.375"/>
</g>
</g>
</g>
<g clip-path="url(#clip-11)">
<g clip-path="url(#clip-12)">
<path fill-rule="nonzero" fill="rgb(100%, 100%, 100%)" fill-opacity="1" d="M 311 93 L 509 93 L 509 259 L 311 259 Z M 311 93 "/>
</g>
</g>
<g clip-path="url(#clip-13)">
<g clip-path="url(#clip-14)">
<path fill-rule="nonzero" fill="rgb(100%, 100%, 100%)" fill-opacity="1" d="M 311 93 L 509 93 L 509 114 L 311 114 Z M 311 93 "/>
</g>
</g>
<g clip-path="url(#clip-15)">
<g clip-path="url(#clip-16)">
<path fill-rule="evenodd" fill="url(#linear-pattern-0)" d="M 335.898438 101.398438 C 335.898438 108.398438 325.398438 108.398438 325.398438 101.398438 C 325.398438 94.398438 335.898438 94.398438 335.898438 101.398438 M 332.960938 100.398438 C 332.960938 102.148438 330.335938 102.148438 330.335938 100.398438 C 330.335938 98.648438 332.960938 98.648438 332.960938 100.398438 "/>
</g>
</g>
<g clip-path="url(#clip-17)">
<g clip-path="url(#clip-18)">
<path fill-rule="evenodd" fill="url(#linear-pattern-1)" d="M 328.023438 101.398438 L 320.5 107 L 320.5 110.9375 L 324.4375 110.9375 L 324.4375 108.96875 L 326.40625 108.96875 L 326.40625 107 L 328.375 107 L 330.335938 99.085938 Z M 328.023438 101.398438 "/>
</g>
</g>
<g clip-path="url(#clip-19)">
<g clip-path="url(#clip-20)">
<g fill="rgb(0%, 0%, 0%)" fill-opacity="1">
<use xlink:href="#glyph-2-0" x="338" y="107.25"/>
<use xlink:href="#glyph-2-1" x="345" y="107.25"/>
<use xlink:href="#glyph-2-2" x="352" y="107.25"/>
<use xlink:href="#glyph-2-3" x="358" y="107.25"/>
<use xlink:href="#glyph-2-4" x="363" y="107.25"/>
<use xlink:href="#glyph-2-5" x="367" y="107.25"/>
<use xlink:href="#glyph-2-6" x="370" y="107.25"/>
<use xlink:href="#glyph-2-7" x="377" y="107.25"/>
<use xlink:href="#glyph-2-8" x="384" y="107.25"/>
<use xlink:href="#glyph-2-5" x="389" y="107.25"/>
<use xlink:href="#glyph-2-9" x="392" y="107.25"/>
</g>
</g>
</g>
<g clip-path="url(#clip-21)">
<g clip-path="url(#clip-22)">
<g fill="rgb(60%, 60%, 60%)" fill-opacity="1">
<use xlink:href="#glyph-2-10" x="401" y="107.25"/>
<use xlink:href="#glyph-2-11" x="404" y="107.25"/>
<use xlink:href="#glyph-2-5" x="407" y="107.25"/>
<use xlink:href="#glyph-2-7" x="410" y="107.25"/>
<use xlink:href="#glyph-2-4" x="417" y="107.25"/>
</g>
</g>
</g>
<g clip-path="url(#clip-23)">
<g clip-path="url(#clip-24)">
<path fill-rule="nonzero" fill="rgb(100%, 100%, 100%)" fill-opacity="1" d="M 311 114 L 509 114 L 509 135 L 311 135 Z M 311 114 "/>
</g>
</g>
<g clip-path="url(#clip-25)">
<g clip-path="url(#clip-26)">
<path fill-rule="evenodd" fill="url(#linear-pattern-2)" d="M 335.898438 122.398438 C 335.898438 129.398438 325.398438 129.398438 325.398438 122.398438 C 325.398438 115.398438 335.898438 115.398438 335.898438 122.398438 M 332.960938 121.398438 C 332.960938 123.148438 330.335938 123.148438 330.335938 121.398438 C 330.335938 119.648438 332.960938 119.648438 332.960938 121.398438 "/>
</g>
</g>
<g clip-path="url(#clip-27)">
<g clip-path="url(#clip-28)">
<path fill-rule="evenodd" fill="url(#linear-pattern-3)" d="M 328.023438 122.398438 L 320.5 128 L 320.5 131.9375 L 324.4375 131.9375 L 324.4375 129.96875 L 326.40625 129.96875 L 326.40625 128 L 328.375 128 L 330.335938 120.085938 Z M 328.023438 122.398438 "/>
</g>
</g>
<g clip-path="url(#clip-29)">
<g clip-path="url(#clip-30)">
<g fill="rgb(0%, 0%, 0%)" fill-opacity="1">
<use xlink:href="#glyph-2-12" x="338" y="128.25"/>
<use xlink:href="#glyph-2-13" x="345" y="128.25"/>
<use xlink:href="#glyph-2-12" x="351" y="128.25"/>
<use xlink:href="#glyph-2-2" x="358" y="128.25"/>
<use xlink:href="#glyph-2-14" x="364" y="128.25"/>
<use xlink:href="#glyph-2-5" x="368" y="128.25"/>
<use xlink:href="#glyph-2-9" x="371" y="128.25"/>
</g>
</g>
</g>
<g clip-path="url(#clip-31)">
<g clip-path="url(#clip-32)">
<g fill="rgb(60%, 60%, 60%)" fill-opacity="1">
<use xlink:href="#glyph-2-10" x="380" y="128.25"/>
<use xlink:href="#glyph-2-11" x="383" y="128.25"/>
<use xlink:href="#glyph-2-5" x="386" y="128.25"/>
<use xlink:href="#glyph-2-7" x="389" y="128.25"/>
<use xlink:href="#glyph-2-4" x="396" y="128.25"/>
</g>
</g>
</g>
<g clip-path="url(#clip-33)">
<g clip-path="url(#clip-34)">
<path fill-rule="nonzero" fill="rgb(100%, 100%, 100%)" fill-opacity="1" d="M 311 135 L 509 135 L 509 156 L 311 156 Z M 311 135 "/>
</g>
</g>
<g clip-path="url(#clip-35)">
<g clip-path="url(#clip-36)">
<path fill-rule="evenodd" fill="url(#linear-pattern-4)" d="M 335.898438 143.398438 C 335.898438 150.398438 325.398438 150.398438 325.398438 143.398438 C 325.398438 136.398438 335.898438 136.398438 335.898438 143.398438 M 332.960938 142.398438 C 332.960938 144.148438 330.335938 144.148438 330.335938 142.398438 C 330.335938 140.648438 332.960938 140.648438 332.960938 142.398438 "/>
</g>
</g>
<g clip-path="url(#clip-37)">
<g clip-path="url(#clip-38)">
<path fill-rule="evenodd" fill="url(#linear-pattern-5)" d="M 328.023438 143.398438 L 320.5 149 L 320.5 152.9375 L 324.4375 152.9375 L 324.4375 150.96875 L 326.40625 150.96875 L 326.40625 149 L 328.375 149 L 330.335938 141.085938 Z M 328.023438 143.398438 "/>
</g>
</g>
<g clip-path="url(#clip-39)">
<g clip-path="url(#clip-40)">
<g fill="rgb(0%, 0%, 0%)" fill-opacity="1">
<use xlink:href="#glyph-2-3" x="338" y="149.25"/>
<use xlink:href="#glyph-2-4" x="343" y="149.25"/>
<use xlink:href="#glyph-2-1" x="347" y="149.25"/>
<use xlink:href="#glyph-2-9" x="354" y="149.25"/>
<use xlink:href="#glyph-2-2" x="361" y="149.25"/>
<use xlink:href="#glyph-2-7" x="367" y="149.25"/>
<use xlink:href="#glyph-2-4" x="374" y="149.25"/>
<use xlink:href="#glyph-2-8" x="378" y="149.25"/>
<use xlink:href="#glyph-2-5" x="383" y="149.25"/>
<use xlink:href="#glyph-2-9" x="386" y="149.25"/>
</g>
</g>
</g>
<g clip-path="url(#clip-41)">
<g clip-path="url(#clip-42)">
<g fill="rgb(60%, 60%, 60%)" fill-opacity="1">
<use xlink:href="#glyph-2-10" x="395" y="149.25"/>
<use xlink:href="#glyph-2-11" x="398" y="149.25"/>
<use xlink:href="#glyph-2-5" x="401" y="149.25"/>
<use xlink:href="#glyph-2-7" x="404" y="149.25"/>
<use xlink:href="#glyph-2-4" x="411" y="149.25"/>
</g>
</g>
</g>
<g clip-path="url(#clip-43)">
<g clip-path="url(#clip-44)">
<path fill-rule="nonzero" fill="rgb(100%, 100%, 100%)" fill-opacity="1" d="M 311 156 L 509 156 L 509 177 L 311 177 Z M 311 156 "/>
</g>
</g>
<g clip-path="url(#clip-45)">
<g clip-path="url(#clip-46)">
<g fill="rgb(0%, 0%, 0%)" fill-opacity="1">
<use xlink:href="#glyph-2-4" x="338" y="170.25"/>
<use xlink:href="#glyph-2-15" x="342" y="170.25"/>
<use xlink:href="#glyph-2-12" x="348" y="170.25"/>
<use xlink:href="#glyph-2-2" x="355" y="170.25"/>
</g>
</g>
</g>
<g clip-path="url(#clip-47)">
<g clip-path="url(#clip-48)">
<g fill="rgb(60%, 60%, 60%)" fill-opacity="1">
<use xlink:href="#glyph-2-10" x="363" y="170.25"/>
<use xlink:href="#glyph-2-11" x="366" y="170.25"/>
<use xlink:href="#glyph-2-16" x="369" y="170.25"/>
<use xlink:href="#glyph-2-13" x="375" y="170.25"/>
<use xlink:href="#glyph-2-14" x="381" y="170.25"/>
<use xlink:href="#glyph-2-17" x="385" y="170.25"/>
<use xlink:href="#glyph-2-18" x="391" y="170.25"/>
<use xlink:href="#glyph-2-13" x="398" y="170.25"/>
<use xlink:href="#glyph-2-14" x="404" y="170.25"/>
<use xlink:href="#glyph-2-19" x="408" y="170.25"/>
<use xlink:href="#glyph-2-20" x="412" y="170.25"/>
<use xlink:href="#glyph-2-21" x="418" y="170.25"/>
<use xlink:href="#glyph-2-22" x="424" y="170.25"/>
</g>
</g>
</g>
<g clip-path="url(#clip-49)">
<g clip-path="url(#clip-50)">
<path fill-rule="nonzero" fill="rgb(100%, 100%, 100%)" fill-opacity="1" d="M 311 177 L 509 177 L 509 198 L 311 198 Z M 311 177 "/>
</g>
</g>
<g clip-path="url(#clip-51)">
<g clip-path="url(#clip-52)">
<g fill="rgb(0%, 0%, 0%)" fill-opacity="1">
<use xlink:href="#glyph-2-0" x="338" y="191.25"/>
<use xlink:href="#glyph-2-1" x="345" y="191.25"/>
<use xlink:href="#glyph-2-2" x="352" y="191.25"/>
<use xlink:href="#glyph-2-3" x="358" y="191.25"/>
<use xlink:href="#glyph-2-4" x="363" y="191.25"/>
<use xlink:href="#glyph-2-5" x="367" y="191.25"/>
<use xlink:href="#glyph-2-6" x="370" y="191.25"/>
<use xlink:href="#glyph-2-7" x="377" y="191.25"/>
<use xlink:href="#glyph-2-8" x="384" y="191.25"/>
<use xlink:href="#glyph-2-3" x="389" y="191.25"/>
<use xlink:href="#glyph-2-17" x="394" y="191.25"/>
<use xlink:href="#glyph-2-6" x="400" y="191.25"/>
<use xlink:href="#glyph-2-14" x="407" y="191.25"/>
<use xlink:href="#glyph-2-2" x="411" y="191.25"/>
</g>
</g>
</g>
<g clip-path="url(#clip-53)">
<g clip-path="url(#clip-54)">
<g fill="rgb(60%, 60%, 60%)" fill-opacity="1">
<use xlink:href="#glyph-2-10" x="419" y="191.25"/>
<use xlink:href="#glyph-2-11" x="422" y="191.25"/>
<use xlink:href="#glyph-2-9" x="425" y="191.25"/>
<use xlink:href="#glyph-2-6" x="432" y="191.25"/>
<use xlink:href="#glyph-2-1" x="439" y="191.25"/>
<use xlink:href="#glyph-2-23" x="446" y="191.25"/>
<use xlink:href="#glyph-2-24" x="453" y="191.25"/>
<use xlink:href="#glyph-2-2" x="456" y="191.25"/>
</g>
</g>
</g>
<g clip-path="url(#clip-55)">
<path fill="none" stroke-width="4" stroke-linecap="butt" stroke-linejoin="miter" stroke="rgb(21.568627%, 51.372549%, 75.294118%)" stroke-opacity="1" stroke-miterlimit="10" d="M 531 51 C 531 45.476562 535.476562 41 541 41 L 729 41 C 734.523438 41 739 45.476562 739 51 L 739 229 C 739 234.523438 734.523438 239 729 239 L 541 239 C 535.476562 239 531 234.523438 531 229 Z M 531 51 " transform="matrix(1, 0, 0, 1, 20, 20)"/>
</g>
<g clip-path="url(#clip-56)">
<g clip-path="url(#clip-57)">
<path fill-rule="nonzero" fill="rgb(21.568627%, 51.372549%, 75.294118%)" fill-opacity="1" d="M 551 61 L 759 61 L 759 93 L 551 93 Z M 551 61 "/>
</g>
</g>
<g clip-path="url(#clip-58)">
<g clip-path="url(#clip-59)">
<g fill="rgb(100%, 100%, 100%)" fill-opacity="1">
<use xlink:href="#glyph-1-2" x="631" y="81.375"/>
<use xlink:href="#glyph-1-0" x="637" y="81.375"/>
<use xlink:href="#glyph-1-3" x="642" y="81.375"/>
<use xlink:href="#glyph-1-4" x="650" y="81.375"/>
<use xlink:href="#glyph-1-1" x="659" y="81.375"/>
<use xlink:href="#glyph-1-5" x="667" y="81.375"/>
<use xlink:href="#glyph-1-0" x="675" y="81.375"/>
</g>
</g>
</g>
<g clip-path="url(#clip-60)">
<g clip-path="url(#clip-61)">
<path fill-rule="nonzero" fill="rgb(100%, 100%, 100%)" fill-opacity="1" d="M 551 93 L 759 93 L 759 259 L 551 259 Z M 551 93 "/>
</g>
</g>
<g clip-path="url(#clip-62)">
<g clip-path="url(#clip-63)">
<path fill-rule="nonzero" fill="rgb(100%, 100%, 100%)" fill-opacity="1" d="M 551 93 L 759 93 L 759 114 L 551 114 Z M 551 93 "/>
</g>
</g>
<g clip-path="url(#clip-64)">
<g clip-path="url(#clip-65)">
<path fill-rule="evenodd" fill="url(#linear-pattern-6)" d="M 575.898438 101.398438 C 575.898438 108.398438 565.398438 108.398438 565.398438 101.398438 C 565.398438 94.398438 575.898438 94.398438 575.898438 101.398438 M 572.960938 100.398438 C 572.960938 102.148438 570.335938 102.148438 570.335938 100.398438 C 570.335938 98.648438 572.960938 98.648438 572.960938 100.398438 "/>
</g>
</g>
<g clip-path="url(#clip-66)">
<g clip-path="url(#clip-67)">
<path fill-rule="evenodd" fill="url(#linear-pattern-7)" d="M 568.023438 101.398438 L 560.5 107 L 560.5 110.9375 L 564.4375 110.9375 L 564.4375 108.96875 L 566.40625 108.96875 L 566.40625 107 L 568.375 107 L 570.335938 99.085938 Z M 568.023438 101.398438 "/>
</g>
</g>
<g clip-path="url(#clip-68)">
<g clip-path="url(#clip-69)">
<g fill="rgb(0%, 0%, 0%)" fill-opacity="1">
<use xlink:href="#glyph-2-3" x="578" y="107.25"/>
<use xlink:href="#glyph-2-4" x="583" y="107.25"/>
<use xlink:href="#glyph-2-1" x="587" y="107.25"/>
<use xlink:href="#glyph-2-9" x="594" y="107.25"/>
<use xlink:href="#glyph-2-2" x="601" y="107.25"/>
<use xlink:href="#glyph-2-7" x="607" y="107.25"/>
<use xlink:href="#glyph-2-4" x="614" y="107.25"/>
<use xlink:href="#glyph-2-8" x="618" y="107.25"/>
<use xlink:href="#glyph-2-5" x="623" y="107.25"/>
<use xlink:href="#glyph-2-9" x="626" y="107.25"/>
</g>
</g>
</g>
<g clip-path="url(#clip-70)">
<g clip-path="url(#clip-71)">
<g fill="rgb(60%, 60%, 60%)" fill-opacity="1">
<use xlink:href="#glyph-2-10" x="635" y="107.25"/>
<use xlink:href="#glyph-2-11" x="638" y="107.25"/>
<use xlink:href="#glyph-2-5" x="641" y="107.25"/>
<use xlink:href="#glyph-2-7" x="644" y="107.25"/>
<use xlink:href="#glyph-2-4" x="651" y="107.25"/>
</g>
</g>
</g>
<g clip-path="url(#clip-72)">
<g clip-path="url(#clip-73)">
<path fill-rule="nonzero" fill="rgb(100%, 100%, 100%)" fill-opacity="1" d="M 551 114 L 759 114 L 759 135 L 551 135 Z M 551 114 "/>
</g>
</g>
<g clip-path="url(#clip-74)">
<g clip-path="url(#clip-75)">
<g fill="rgb(0%, 0%, 0%)" fill-opacity="1">
<use xlink:href="#glyph-2-3" x="578" y="128.25"/>
<use xlink:href="#glyph-2-4" x="583" y="128.25"/>
<use xlink:href="#glyph-2-1" x="587" y="128.25"/>
<use xlink:href="#glyph-2-9" x="594" y="128.25"/>
<use xlink:href="#glyph-2-2" x="601" y="128.25"/>
<use xlink:href="#glyph-2-7" x="607" y="128.25"/>
<use xlink:href="#glyph-2-4" x="614" y="128.25"/>
<use xlink:href="#glyph-2-8" x="618" y="128.25"/>
<use xlink:href="#glyph-2-7" x="623" y="128.25"/>
<use xlink:href="#glyph-2-13" x="630" y="128.25"/>
<use xlink:href="#glyph-2-25" x="636" y="128.25"/>
<use xlink:href="#glyph-2-2" x="646" y="128.25"/>
</g>
</g>
</g>
<g clip-path="url(#clip-76)">
<g clip-path="url(#clip-77)">
<g fill="rgb(60%, 60%, 60%)" fill-opacity="1">
<use xlink:href="#glyph-2-10" x="654" y="128.25"/>
<use xlink:href="#glyph-2-11" x="657" y="128.25"/>
<use xlink:href="#glyph-2-16" x="660" y="128.25"/>
<use xlink:href="#glyph-2-13" x="666" y="128.25"/>
<use xlink:href="#glyph-2-14" x="672" y="128.25"/>
<use xlink:href="#glyph-2-17" x="676" y="128.25"/>
<use xlink:href="#glyph-2-18" x="682" y="128.25"/>
<use xlink:href="#glyph-2-13" x="689" y="128.25"/>
<use xlink:href="#glyph-2-14" x="695" y="128.25"/>
<use xlink:href="#glyph-2-19" x="699" y="128.25"/>
<use xlink:href="#glyph-2-26" x="703" y="128.25"/>
<use xlink:href="#glyph-2-21" x="709" y="128.25"/>
<use xlink:href="#glyph-2-21" x="715" y="128.25"/>
<use xlink:href="#glyph-2-22" x="721" y="128.25"/>
</g>
</g>
</g>
<g clip-path="url(#clip-78)">
<path fill="none" stroke-width="4" stroke-linecap="butt" stroke-linejoin="miter" stroke="rgb(21.568627%, 51.372549%, 75.294118%)" stroke-opacity="1" stroke-miterlimit="10" d="M 41 51 C 41 45.476562 45.476562 41 51 41 L 229 41 C 234.523438 41 239 45.476562 239 51 L 239 229 C 239 234.523438 234.523438 239 229 239 L 51 239 C 45.476562 239 41 234.523438 41 229 Z M 41 51 " transform="matrix(1, 0, 0, 1, 20, 20)"/>
</g>
<g clip-path="url(#clip-79)">
<g clip-path="url(#clip-80)">
<path fill-rule="nonzero" fill="rgb(21.568627%, 51.372549%, 75.294118%)" fill-opacity="1" d="M 61 61 L 259 61 L 259 93 L 61 93 Z M 61 61 "/>
</g>
</g>
<g clip-path="url(#clip-81)">
<g clip-path="url(#clip-82)">
<g fill="rgb(100%, 100%, 100%)" fill-opacity="1">
<use xlink:href="#glyph-1-6" x="140" y="81.375"/>
<use xlink:href="#glyph-1-7" x="149" y="81.375"/>
<use xlink:href="#glyph-1-6" x="157" y="81.375"/>
<use xlink:href="#glyph-1-1" x="166" y="81.375"/>
<use xlink:href="#glyph-1-8" x="174" y="81.375"/>
</g>
</g>
</g>
<g clip-path="url(#clip-83)">
<g clip-path="url(#clip-84)">
<path fill-rule="nonzero" fill="rgb(100%, 100%, 100%)" fill-opacity="1" d="M 61 93 L 259 93 L 259 259 L 61 259 Z M 61 93 "/>
</g>
</g>
<g clip-path="url(#clip-85)">
<g clip-path="url(#clip-86)">
<path fill-rule="nonzero" fill="rgb(100%, 100%, 100%)" fill-opacity="1" d="M 61 93 L 259 93 L 259 114 L 61 114 Z M 61 93 "/>
</g>
</g>
<g clip-path="url(#clip-87)">
<g clip-path="url(#clip-88)">
<path fill-rule="evenodd" fill="url(#linear-pattern-8)" d="M 85.898438 101.398438 C 85.898438 108.398438 75.398438 108.398438 75.398438 101.398438 C 75.398438 94.398438 85.898438 94.398438 85.898438 101.398438 M 82.960938 100.398438 C 82.960938 102.148438 80.335938 102.148438 80.335938 100.398438 C 80.335938 98.648438 82.960938 98.648438 82.960938 100.398438 "/>
</g>
</g>
<g clip-path="url(#clip-89)">
<g clip-path="url(#clip-90)">
<path fill-rule="evenodd" fill="url(#linear-pattern-9)" d="M 78.023438 101.398438 L 70.5 107 L 70.5 110.9375 L 74.4375 110.9375 L 74.4375 108.96875 L 76.40625 108.96875 L 76.40625 107 L 78.375 107 L 80.335938 99.085938 Z M 78.023438 101.398438 "/>
</g>
</g>
<g clip-path="url(#clip-91)">
<g clip-path="url(#clip-92)">
<g fill="rgb(0%, 0%, 0%)" fill-opacity="1">
<use xlink:href="#glyph-2-12" x="88" y="107.25"/>
<use xlink:href="#glyph-2-13" x="95" y="107.25"/>
<use xlink:href="#glyph-2-12" x="101" y="107.25"/>
<use xlink:href="#glyph-2-2" x="108" y="107.25"/>
<use xlink:href="#glyph-2-14" x="114" y="107.25"/>
<use xlink:href="#glyph-2-5" x="118" y="107.25"/>
<use xlink:href="#glyph-2-9" x="121" y="107.25"/>
</g>
</g>
</g>
<g clip-path="url(#clip-93)">
<g clip-path="url(#clip-94)">
<g fill="rgb(60%, 60%, 60%)" fill-opacity="1">
<use xlink:href="#glyph-2-10" x="130" y="107.25"/>
<use xlink:href="#glyph-2-11" x="133" y="107.25"/>
<use xlink:href="#glyph-2-5" x="136" y="107.25"/>
<use xlink:href="#glyph-2-7" x="139" y="107.25"/>
<use xlink:href="#glyph-2-4" x="146" y="107.25"/>
</g>
</g>
</g>
<g clip-path="url(#clip-95)">
<g clip-path="url(#clip-96)">
<path fill-rule="nonzero" fill="rgb(100%, 100%, 100%)" fill-opacity="1" d="M 61 114 L 259 114 L 259 135 L 61 135 Z M 61 114 "/>
</g>
</g>
<g clip-path="url(#clip-97)">
<g clip-path="url(#clip-98)">
<g fill="rgb(0%, 0%, 0%)" fill-opacity="1">
<use xlink:href="#glyph-2-12" x="88" y="128.25"/>
<use xlink:href="#glyph-2-13" x="95" y="128.25"/>
<use xlink:href="#glyph-2-12" x="101" y="128.25"/>
<use xlink:href="#glyph-2-2" x="108" y="128.25"/>
<use xlink:href="#glyph-2-14" x="114" y="128.25"/>
<use xlink:href="#glyph-2-4" x="118" y="128.25"/>
<use xlink:href="#glyph-2-5" x="122" y="128.25"/>
<use xlink:href="#glyph-2-4" x="125" y="128.25"/>
<use xlink:href="#glyph-2-24" x="129" y="128.25"/>
<use xlink:href="#glyph-2-2" x="132" y="128.25"/>
</g>
</g>
</g>
<g clip-path="url(#clip-99)">
<g clip-path="url(#clip-100)">
<g fill="rgb(60%, 60%, 60%)" fill-opacity="1">
<use xlink:href="#glyph-2-10" x="140" y="128.25"/>
<use xlink:href="#glyph-2-11" x="143" y="128.25"/>
<use xlink:href="#glyph-2-16" x="146" y="128.25"/>
<use xlink:href="#glyph-2-13" x="152" y="128.25"/>
<use xlink:href="#glyph-2-14" x="158" y="128.25"/>
<use xlink:href="#glyph-2-17" x="162" y="128.25"/>
<use xlink:href="#glyph-2-18" x="168" y="128.25"/>
<use xlink:href="#glyph-2-13" x="175" y="128.25"/>
<use xlink:href="#glyph-2-14" x="181" y="128.25"/>
<use xlink:href="#glyph-2-19" x="185" y="128.25"/>
<use xlink:href="#glyph-2-27" x="189" y="128.25"/>
<use xlink:href="#glyph-2-21" x="195" y="128.25"/>
<use xlink:href="#glyph-2-21" x="201" y="128.25"/>
<use xlink:href="#glyph-2-22" x="207" y="128.25"/>
</g>
</g>
</g>
<g clip-path="url(#clip-101)">
<g clip-path="url(#clip-102)">
<path fill-rule="nonzero" fill="rgb(100%, 100%, 100%)" fill-opacity="1" d="M 61 135 L 259 135 L 259 156 L 61 156 Z M 61 135 "/>
</g>
</g>
<g clip-path="url(#clip-103)">
<g clip-path="url(#clip-104)">
<g fill="rgb(0%, 0%, 0%)" fill-opacity="1">
<use xlink:href="#glyph-2-12" x="88" y="149.25"/>
<use xlink:href="#glyph-2-13" x="95" y="149.25"/>
<use xlink:href="#glyph-2-12" x="101" y="149.25"/>
<use xlink:href="#glyph-2-2" x="108" y="149.25"/>
<use xlink:href="#glyph-2-14" x="114" y="149.25"/>
<use xlink:href="#glyph-2-9" x="118" y="149.25"/>
<use xlink:href="#glyph-2-13" x="125" y="149.25"/>
<use xlink:href="#glyph-2-4" x="131" y="149.25"/>
<use xlink:href="#glyph-2-2" x="135" y="149.25"/>
</g>
</g>
</g>
<g clip-path="url(#clip-105)">
<g clip-path="url(#clip-106)">
<g fill="rgb(60%, 60%, 60%)" fill-opacity="1">
<use xlink:href="#glyph-2-10" x="143" y="149.25"/>
<use xlink:href="#glyph-2-11" x="146" y="149.25"/>
<use xlink:href="#glyph-2-9" x="149" y="149.25"/>
<use xlink:href="#glyph-2-13" x="156" y="149.25"/>
<use xlink:href="#glyph-2-4" x="162" y="149.25"/>
<use xlink:href="#glyph-2-2" x="166" y="149.25"/>
</g>
</g>
</g>
<g clip-path="url(#clip-107)">
<g clip-path="url(#clip-108)">
<path fill-rule="nonzero" fill="rgb(100%, 100%, 100%)" fill-opacity="1" d="M 61 156 L 259 156 L 259 177 L 61 177 Z M 61 156 "/>
</g>
</g>
<g clip-path="url(#clip-109)">
<g clip-path="url(#clip-110)">
<g fill="rgb(0%, 0%, 0%)" fill-opacity="1">
<use xlink:href="#glyph-2-12" x="88" y="170.25"/>
<use xlink:href="#glyph-2-2" x="95" y="170.25"/>
<use xlink:href="#glyph-2-14" x="101" y="170.25"/>
<use xlink:href="#glyph-2-3" x="105" y="170.25"/>
<use xlink:href="#glyph-2-6" x="110" y="170.25"/>
<use xlink:href="#glyph-2-7" x="117" y="170.25"/>
</g>
</g>
</g>
<g clip-path="url(#clip-111)">
<g clip-path="url(#clip-112)">
<g fill="rgb(60%, 60%, 60%)" fill-opacity="1">
<use xlink:href="#glyph-2-10" x="126" y="170.25"/>
<use xlink:href="#glyph-2-11" x="129" y="170.25"/>
<use xlink:href="#glyph-2-5" x="132" y="170.25"/>
<use xlink:href="#glyph-2-7" x="135" y="170.25"/>
<use xlink:href="#glyph-2-4" x="142" y="170.25"/>
</g>
</g>
</g>
<g clip-path="url(#clip-113)">
<g clip-path="url(#clip-114)">
<path fill-rule="nonzero" fill="rgb(100%, 100%, 100%)" fill-opacity="1" d="M 61 177 L 259 177 L 259 198 L 61 198 Z M 61 177 "/>
</g>
</g>
<g clip-path="url(#clip-115)">
<g clip-path="url(#clip-116)">
<g fill="rgb(0%, 0%, 0%)" fill-opacity="1">
<use xlink:href="#glyph-2-13" x="88" y="191.25"/>
<use xlink:href="#glyph-2-16" x="94" y="191.25"/>
<use xlink:href="#glyph-2-28" x="100" y="191.25"/>
</g>
</g>
</g>
<g clip-path="url(#clip-117)">
<g clip-path="url(#clip-118)">
<g fill="rgb(60%, 60%, 60%)" fill-opacity="1">
<use xlink:href="#glyph-2-10" x="109" y="191.25"/>
<use xlink:href="#glyph-2-11" x="112" y="191.25"/>
<use xlink:href="#glyph-2-9" x="115" y="191.25"/>
<use xlink:href="#glyph-2-6" x="122" y="191.25"/>
<use xlink:href="#glyph-2-1" x="129" y="191.25"/>
<use xlink:href="#glyph-2-23" x="136" y="191.25"/>
<use xlink:href="#glyph-2-24" x="143" y="191.25"/>
<use xlink:href="#glyph-2-2" x="146" y="191.25"/>
</g>
</g>
</g>
<g clip-path="url(#clip-119)">
<g clip-path="url(#clip-120)">
<path fill-rule="nonzero" fill="rgb(100%, 100%, 100%)" fill-opacity="1" d="M 61 198 L 259 198 L 259 219 L 61 219 Z M 61 198 "/>
</g>
</g>
<g clip-path="url(#clip-121)">
<g clip-path="url(#clip-122)">
<g fill="rgb(0%, 0%, 0%)" fill-opacity="1">
<use xlink:href="#glyph-2-4" x="88" y="212.25"/>
<use xlink:href="#glyph-2-6" x="92" y="212.25"/>
<use xlink:href="#glyph-2-4" x="99" y="212.25"/>
<use xlink:href="#glyph-2-13" x="103" y="212.25"/>
<use xlink:href="#glyph-2-24" x="109" y="212.25"/>
</g>
</g>
</g>
<g clip-path="url(#clip-123)">
<g clip-path="url(#clip-124)">
<g fill="rgb(60%, 60%, 60%)" fill-opacity="1">
<use xlink:href="#glyph-2-10" x="114" y="212.25"/>
<use xlink:href="#glyph-2-11" x="117" y="212.25"/>
<use xlink:href="#glyph-2-9" x="120" y="212.25"/>
<use xlink:href="#glyph-2-6" x="127" y="212.25"/>
<use xlink:href="#glyph-2-1" x="134" y="212.25"/>
<use xlink:href="#glyph-2-23" x="141" y="212.25"/>
<use xlink:href="#glyph-2-24" x="148" y="212.25"/>
<use xlink:href="#glyph-2-2" x="151" y="212.25"/>
</g>
</g>
</g>
</svg>
